<?xml version="1.0" encoding="utf-8" standalone="no"?>
<!DOCTYPE svg PUBLIC "-//W3C//DTD SVG 1.1//EN"
  "http://www.w3.org/Graphics/SVG/1.1/DTD/svg11.dtd">
<!-- Created with matplotlib (https://matplotlib.org/) -->
<svg height="346.1pt" version="1.1" viewBox="0 0 531.532344 346.1" width="531.532344pt" xmlns="http://www.w3.org/2000/svg" xmlns:xlink="http://www.w3.org/1999/xlink">
 <metadata>
  <rdf:RDF xmlns:cc="http://creativecommons.org/ns#" xmlns:dc="http://purl.org/dc/elements/1.1/" xmlns:rdf="http://www.w3.org/1999/02/22-rdf-syntax-ns#">
   <cc:Work>
    <dc:type rdf:resource="http://purl.org/dc/dcmitype/StillImage"/>
    <dc:date>2022-09-07T09:04:36.172868</dc:date>
    <dc:format>image/svg+xml</dc:format>
    <dc:creator>
     <cc:Agent>
      <dc:title>Matplotlib v3.3.4, https://matplotlib.org/</dc:title>
     </cc:Agent>
    </dc:creator>
   </cc:Work>
  </rdf:RDF>
 </metadata>
 <defs>
  <style type="text/css">*{stroke-linecap:butt;stroke-linejoin:round;}</style>
 </defs>
 <g id="figure_1">
  <g id="patch_1">
   <path d="M 0 346.1 
L 531.532344 346.1 
L 531.532344 0 
L 0 0 
z
" style="fill:#ffffff;"/>
  </g>
  <g id="axes_1">
   <g id="patch_2">
    <path d="M 63.23375 316.805 
L 509.63375 316.805 
L 509.63375 99.365 
L 63.23375 99.365 
z
" style="fill:#ffffff;"/>
   </g>
   <g id="matplotlib.axis_1">
    <g id="xtick_1">
     <g id="line2d_1">
      <path clip-path="url(#p98722bc489)" d="M 184.979205 316.805 
L 184.979205 99.365 
" style="fill:none;stroke:#f0f5f5;stroke-linecap:round;stroke-width:2;"/>
     </g>
     <g id="line2d_2"/>
     <g id="text_1">
      <!-- base model -->
      <g transform="translate(143.82108 332.705)scale(0.18 -0.18)">
       <defs>
        <path d="M 44.734375 23.875 
Q 44.734375 11.53125 40.28125 5.265625 
Q 35.84375 -0.984375 27.390625 -0.984375 
Q 19 -0.984375 14.796875 6.25 
L 14.359375 0 
L 6.5 0 
L 6.5 75 
L 15.09375 75 
L 15.09375 47.015625 
Q 19.34375 53.8125 27.296875 53.8125 
Q 35.984375 53.8125 40.328125 47.65625 
Q 44.671875 41.5 44.734375 29.109375 
z
M 36.140625 28.8125 
Q 36.140625 38.1875 33.515625 42.15625 
Q 30.90625 46.140625 25.046875 46.140625 
Q 18.359375 46.140625 15.09375 38.921875 
L 15.09375 13.765625 
Q 18.3125 6.640625 25.140625 6.640625 
Q 31 6.640625 33.53125 10.734375 
Q 36.078125 14.84375 36.140625 23.484375 
z
" id="RobotoCondensed-Regular-98"/>
        <path d="M 33.640625 0 
Q 32.859375 1.703125 32.515625 5.765625 
Q 27.9375 -0.984375 20.796875 -0.984375 
Q 13.625 -0.984375 9.59375 3.046875 
Q 5.5625 7.078125 5.5625 14.40625 
Q 5.5625 22.46875 11.03125 27.203125 
Q 16.5 31.9375 26.03125 32.03125 
L 32.375 32.03125 
L 32.375 37.640625 
Q 32.375 42.390625 30.265625 44.390625 
Q 28.171875 46.390625 23.875 46.390625 
Q 19.96875 46.390625 17.53125 44.0625 
Q 15.09375 41.75 15.09375 38.1875 
L 6.453125 38.1875 
Q 6.453125 42.234375 8.84375 45.921875 
Q 11.234375 49.609375 15.28125 51.703125 
Q 19.34375 53.8125 24.3125 53.8125 
Q 32.421875 53.8125 36.640625 49.78125 
Q 40.875 45.75 40.96875 38.03125 
L 40.96875 11.375 
Q 41.015625 5.28125 42.625 0.78125 
L 42.625 0 
z
M 22.125 6.890625 
Q 25.296875 6.890625 28.171875 8.640625 
Q 31.0625 10.40625 32.375 13.03125 
L 32.375 25.640625 
L 27.484375 25.640625 
Q 21.34375 25.53125 17.765625 22.875 
Q 14.203125 20.21875 14.203125 15.4375 
Q 14.203125 10.9375 16.015625 8.90625 
Q 17.828125 6.890625 22.125 6.890625 
z
" id="RobotoCondensed-Regular-97"/>
        <path d="M 32.125 13.53125 
Q 32.125 16.3125 30.03125 18.3125 
Q 27.9375 20.3125 21.921875 23 
Q 14.9375 25.875 12.078125 27.921875 
Q 9.234375 29.984375 7.8125 32.59375 
Q 6.390625 35.203125 6.390625 38.8125 
Q 6.390625 45.265625 11.109375 49.53125 
Q 15.828125 53.8125 23.140625 53.8125 
Q 30.859375 53.8125 35.546875 49.3125 
Q 40.234375 44.828125 40.234375 37.796875 
L 31.640625 37.796875 
Q 31.640625 41.359375 29.25 43.875 
Q 26.859375 46.390625 23.140625 46.390625 
Q 19.34375 46.390625 17.15625 44.40625 
Q 14.984375 42.4375 14.984375 39.109375 
Q 14.984375 36.46875 16.578125 34.859375 
Q 18.171875 33.25 24.21875 30.609375 
Q 33.84375 26.859375 37.296875 23.265625 
Q 40.765625 19.671875 40.765625 14.15625 
Q 40.765625 7.28125 36.03125 3.140625 
Q 31.296875 -0.984375 23.34375 -0.984375 
Q 15.09375 -0.984375 9.953125 3.75 
Q 4.828125 8.5 4.828125 15.765625 
L 13.53125 15.765625 
Q 13.671875 11.375 16.203125 8.875 
Q 18.75 6.390625 23.34375 6.390625 
Q 27.640625 6.390625 29.875 8.3125 
Q 32.125 10.25 32.125 13.53125 
z
" id="RobotoCondensed-Regular-115"/>
        <path d="M 25.34375 -0.984375 
Q 15.484375 -0.984375 10.203125 4.90625 
Q 4.9375 10.796875 4.828125 22.171875 
L 4.828125 28.5625 
Q 4.828125 40.375 9.984375 47.09375 
Q 15.140625 53.8125 24.359375 53.8125 
Q 33.640625 53.8125 38.234375 47.90625 
Q 42.828125 42 42.921875 29.5 
L 42.921875 23.828125 
L 13.421875 23.828125 
L 13.421875 22.609375 
Q 13.421875 14.109375 16.625 10.25 
Q 19.828125 6.390625 25.828125 6.390625 
Q 29.640625 6.390625 32.546875 7.828125 
Q 35.453125 9.28125 37.984375 12.40625 
L 42.484375 6.9375 
Q 36.859375 -0.984375 25.34375 -0.984375 
z
M 24.359375 46.390625 
Q 19 46.390625 16.40625 42.703125 
Q 13.8125 39.015625 13.484375 31.25 
L 34.28125 31.25 
L 34.28125 32.421875 
Q 33.9375 39.9375 31.5625 43.15625 
Q 29.203125 46.390625 24.359375 46.390625 
z
" id="RobotoCondensed-Regular-101"/>
        <path id="RobotoCondensed-Regular-32"/>
        <path d="M 14.59375 52.828125 
L 14.796875 47.953125 
Q 19.625 53.8125 27.546875 53.8125 
Q 36.375 53.8125 39.890625 46.140625 
Q 44.875 53.8125 53.765625 53.8125 
Q 68.359375 53.8125 68.703125 35.59375 
L 68.703125 0 
L 60.109375 0 
L 60.109375 34.765625 
Q 60.109375 40.53125 58.046875 43.328125 
Q 56 46.140625 51.125 46.140625 
Q 47.21875 46.140625 44.765625 43.109375 
Q 42.328125 40.09375 41.9375 35.40625 
L 41.9375 0 
L 33.25 0 
L 33.25 35.15625 
Q 33.109375 46.140625 24.3125 46.140625 
Q 17.78125 46.140625 15.09375 39.59375 
L 15.09375 0 
L 6.5 0 
L 6.5 52.828125 
z
" id="RobotoCondensed-Regular-109"/>
        <path d="M 4.640625 28.859375 
Q 4.640625 40.375 10.234375 47.09375 
Q 15.828125 53.8125 25 53.8125 
Q 34.1875 53.8125 39.765625 47.265625 
Q 45.359375 40.71875 45.515625 29.4375 
L 45.515625 23.875 
Q 45.515625 12.40625 39.9375 5.703125 
Q 34.375 -0.984375 25.09375 -0.984375 
Q 15.921875 -0.984375 10.375 5.515625 
Q 4.828125 12.015625 4.640625 23.09375 
z
M 13.28125 23.875 
Q 13.28125 15.71875 16.46875 11.046875 
Q 19.671875 6.390625 25.09375 6.390625 
Q 36.53125 6.390625 36.859375 22.90625 
L 36.859375 28.859375 
Q 36.859375 36.96875 33.640625 41.671875 
Q 30.421875 46.390625 25 46.390625 
Q 19.671875 46.390625 16.46875 41.671875 
Q 13.28125 36.96875 13.28125 28.90625 
z
" id="RobotoCondensed-Regular-111"/>
        <path d="M 4.640625 28.8125 
Q 4.640625 41.015625 9.203125 47.40625 
Q 13.765625 53.8125 22.3125 53.8125 
Q 29.890625 53.8125 34.125 47.65625 
L 34.125 75 
L 42.78125 75 
L 42.78125 0 
L 34.859375 0 
L 34.421875 5.671875 
Q 30.171875 -0.984375 22.265625 -0.984375 
Q 14.0625 -0.984375 9.390625 5.390625 
Q 4.734375 11.765625 4.640625 23.390625 
z
M 13.28125 23.875 
Q 13.28125 14.984375 15.921875 10.8125 
Q 18.5625 6.640625 24.515625 6.640625 
Q 30.953125 6.640625 34.125 13.140625 
L 34.125 39.796875 
Q 30.8125 46.140625 24.5625 46.140625 
Q 18.609375 46.140625 15.96875 41.96875 
Q 13.328125 37.796875 13.28125 29.15625 
z
" id="RobotoCondensed-Regular-100"/>
        <path d="M 15.765625 0 
L 7.125 0 
L 7.125 75 
L 15.765625 75 
z
" id="RobotoCondensed-Regular-108"/>
       </defs>
       <use xlink:href="#RobotoCondensed-Regular-98"/>
       <use x="49.316406" xlink:href="#RobotoCondensed-Regular-97"/>
       <use x="97.216797" xlink:href="#RobotoCondensed-Regular-115"/>
       <use x="142.773438" xlink:href="#RobotoCondensed-Regular-101"/>
       <use x="189.599609" xlink:href="#RobotoCondensed-Regular-32"/>
       <use x="212.5" xlink:href="#RobotoCondensed-Regular-109"/>
       <use x="287.744141" xlink:href="#RobotoCondensed-Regular-111"/>
       <use x="337.939453" xlink:href="#RobotoCondensed-Regular-100"/>
       <use x="387.548828" xlink:href="#RobotoCondensed-Regular-101"/>
       <use x="434.375" xlink:href="#RobotoCondensed-Regular-108"/>
      </g>
     </g>
    </g>
    <g id="xtick_2">
     <g id="line2d_3">
      <path clip-path="url(#p98722bc489)" d="M 387.888295 316.805 
L 387.888295 99.365 
" style="fill:none;stroke:#f0f5f5;stroke-linecap:round;stroke-width:2;"/>
     </g>
     <g id="line2d_4"/>
     <g id="text_2">
      <!-- rerank@8 -->
      <g transform="translate(354.111577 332.705)scale(0.18 -0.18)">
       <defs>
        <path d="M 28.265625 44.734375 
Q 26.46875 45.0625 24.359375 45.0625 
Q 17.71875 45.0625 15.09375 37.796875 
L 15.09375 0 
L 6.453125 0 
L 6.453125 52.828125 
L 14.84375 52.828125 
L 14.984375 47.46875 
Q 18.453125 53.8125 24.8125 53.8125 
Q 26.859375 53.8125 28.21875 53.125 
z
" id="RobotoCondensed-Regular-114"/>
        <path d="M 14.59375 52.828125 
L 14.84375 47.125 
Q 19.875 53.8125 27.6875 53.8125 
Q 41.703125 53.8125 41.890625 35.109375 
L 41.890625 0 
L 33.296875 0 
L 33.296875 34.71875 
Q 33.296875 40.921875 31.21875 43.53125 
Q 29.15625 46.140625 25 46.140625 
Q 21.78125 46.140625 19.21875 43.984375 
Q 16.65625 41.84375 15.09375 38.375 
L 15.09375 0 
L 6.453125 0 
L 6.453125 52.828125 
z
" id="RobotoCondensed-Regular-110"/>
        <path d="M 19.734375 24.171875 
L 15.140625 18.890625 
L 15.140625 0 
L 6.5 0 
L 6.5 75 
L 15.140625 75 
L 15.140625 30.125 
L 31.59375 52.828125 
L 41.9375 52.828125 
L 25.140625 30.765625 
L 44.140625 0 
L 34.078125 0 
z
" id="RobotoCondensed-Regular-107"/>
        <path d="M 71.96875 24.515625 
Q 71.578125 13.03125 67.109375 6.015625 
Q 62.640625 -0.984375 54.890625 -0.984375 
Q 47.3125 -0.984375 44.96875 6.78125 
Q 42.78125 2.875 40.0625 0.9375 
Q 37.359375 -0.984375 34.578125 -0.984375 
Q 28.609375 -0.984375 25.625 4.703125 
Q 22.65625 10.40625 23.4375 20.359375 
Q 24.03125 28.328125 26.53125 34.6875 
Q 29.046875 41.0625 32.953125 44.671875 
Q 36.859375 48.296875 41.109375 48.296875 
Q 44.578125 48.296875 47.265625 47.21875 
Q 49.953125 46.140625 53.265625 43.109375 
L 51.078125 16.0625 
Q 50.296875 4.78125 55.90625 4.78125 
Q 60.25 4.78125 63 10.046875 
Q 65.765625 15.328125 66.109375 24.515625 
Q 66.84375 43.609375 60.21875 53.515625 
Q 53.609375 63.421875 40.328125 63.421875 
Q 32.125 63.421875 25.96875 58.5625 
Q 19.828125 53.71875 16.28125 44.5625 
Q 12.75 35.40625 12.359375 23.34375 
Q 11.671875 4.828125 18.375 -5.59375 
Q 25.09375 -16.015625 37.703125 -16.015625 
Q 41.453125 -16.015625 45.1875 -14.90625 
Q 48.921875 -13.8125 51.3125 -12.15625 
L 52.9375 -17.78125 
Q 50.34375 -19.671875 46.109375 -20.890625 
Q 41.890625 -22.125 37.546875 -22.125 
Q 27.34375 -22.125 19.9375 -16.65625 
Q 12.546875 -11.1875 8.875 -0.859375 
Q 5.21875 9.46875 5.671875 23.34375 
Q 6.109375 36.765625 10.671875 47.5 
Q 15.234375 58.25 23 64.0625 
Q 30.765625 69.875 40.53125 69.875 
Q 50.59375 69.875 57.9375 64.375 
Q 65.28125 58.890625 68.84375 48.65625 
Q 72.40625 38.421875 71.96875 24.515625 
z
M 30.765625 20.359375 
Q 30.21875 13.421875 31.828125 9.703125 
Q 33.453125 6 36.8125 6 
Q 38.96875 6 40.9375 8.34375 
Q 42.921875 10.6875 44.234375 15.09375 
L 44.34375 16.0625 
L 46.234375 40.921875 
Q 44.09375 42.046875 41.890625 42.046875 
Q 37.359375 42.046875 34.375 36.1875 
Q 31.390625 30.328125 30.765625 20.359375 
z
" id="RobotoCondensed-Regular-64"/>
        <path d="M 42.28125 52.546875 
Q 42.28125 47.21875 39.90625 43.0625 
Q 37.546875 38.921875 33.546875 36.578125 
Q 38.28125 34.125 40.96875 29.5625 
Q 43.65625 25 43.65625 19.1875 
Q 43.65625 10.015625 38.453125 4.515625 
Q 33.25 -0.984375 24.65625 -0.984375 
Q 16.0625 -0.984375 10.859375 4.515625 
Q 5.671875 10.015625 5.671875 19.1875 
Q 5.671875 25.046875 8.328125 29.65625 
Q 10.984375 34.28125 15.578125 36.625 
Q 11.578125 38.96875 9.28125 43.09375 
Q 6.984375 47.21875 6.984375 52.546875 
Q 6.984375 61.53125 11.84375 66.796875 
Q 16.703125 72.078125 24.65625 72.078125 
Q 32.5625 72.078125 37.421875 66.84375 
Q 42.28125 61.625 42.28125 52.546875 
z
M 35.015625 19.390625 
Q 35.015625 25.484375 32.125 29.171875 
Q 29.25 32.859375 24.5625 32.859375 
Q 19.78125 32.859375 17.015625 29.140625 
Q 14.265625 25.4375 14.265625 19.390625 
Q 14.265625 13.234375 16.96875 9.8125 
Q 19.671875 6.390625 24.65625 6.390625 
Q 29.640625 6.390625 32.328125 9.8125 
Q 35.015625 13.234375 35.015625 19.390625 
z
M 33.6875 52.390625 
Q 33.6875 57.8125 31.140625 61.234375 
Q 28.609375 64.65625 24.65625 64.65625 
Q 20.515625 64.65625 18.0625 61.28125 
Q 15.625 57.90625 15.625 52.390625 
Q 15.625 46.828125 18.109375 43.546875 
Q 20.609375 40.28125 24.65625 40.28125 
Q 28.8125 40.28125 31.25 43.59375 
Q 33.6875 46.921875 33.6875 52.390625 
z
" id="RobotoCondensed-Regular-56"/>
       </defs>
       <use xlink:href="#RobotoCondensed-Regular-114"/>
       <use x="30.419922" xlink:href="#RobotoCondensed-Regular-101"/>
       <use x="77.246094" xlink:href="#RobotoCondensed-Regular-114"/>
       <use x="107.666016" xlink:href="#RobotoCondensed-Regular-97"/>
       <use x="155.566406" xlink:href="#RobotoCondensed-Regular-110"/>
       <use x="203.955078" xlink:href="#RobotoCondensed-Regular-107"/>
       <use x="249.023438" xlink:href="#RobotoCondensed-Regular-64"/>
       <use x="325.927734" xlink:href="#RobotoCondensed-Regular-56"/>
      </g>
     </g>
    </g>
   </g>
   <g id="matplotlib.axis_2">
    <g id="ytick_1">
     <g id="line2d_5">
      <path clip-path="url(#p98722bc489)" d="M 63.23375 306.921364 
L 509.63375 306.921364 
" style="fill:none;stroke:#f0f5f5;stroke-linecap:round;stroke-width:2;"/>
     </g>
     <g id="line2d_6"/>
     <g id="text_3">
      <!-- 0 -->
      <g transform="translate(51.949063 313.671364)scale(0.18 -0.18)">
       <defs>
        <path d="M 43.703125 30.328125 
Q 43.703125 14.59375 39.109375 6.796875 
Q 34.515625 -0.984375 24.703125 -0.984375 
Q 15.1875 -0.984375 10.5 6.484375 
Q 5.8125 13.96875 5.609375 28.953125 
L 5.609375 41.15625 
Q 5.609375 56.734375 10.21875 64.40625 
Q 14.84375 72.078125 24.609375 72.078125 
Q 34.234375 72.078125 38.84375 64.796875 
Q 43.453125 57.515625 43.703125 42.78125 
z
M 35.0625 42.671875 
Q 35.0625 53.953125 32.5625 59.296875 
Q 30.078125 64.65625 24.609375 64.65625 
Q 19.28125 64.65625 16.796875 59.40625 
Q 14.3125 54.15625 14.203125 43.5625 
L 14.203125 28.90625 
Q 14.203125 17.671875 16.796875 12.03125 
Q 19.390625 6.390625 24.703125 6.390625 
Q 29.984375 6.390625 32.46875 11.71875 
Q 34.96875 17.046875 35.0625 27.984375 
z
" id="RobotoCondensed-Regular-48"/>
       </defs>
       <use xlink:href="#RobotoCondensed-Regular-48"/>
      </g>
     </g>
    </g>
    <g id="ytick_2">
     <g id="line2d_7">
      <path clip-path="url(#p98722bc489)" d="M 63.23375 267.386818 
L 509.63375 267.386818 
" style="fill:none;stroke:#f0f5f5;stroke-linecap:round;stroke-width:2;"/>
     </g>
     <g id="line2d_8"/>
     <g id="text_4">
      <!-- 0.05 -->
      <g transform="translate(29.443438 274.136818)scale(0.18 -0.18)">
       <defs>
        <path d="M 7.03125 4.734375 
Q 7.03125 7.078125 8.421875 8.640625 
Q 9.8125 10.203125 12.59375 10.203125 
Q 15.375 10.203125 16.8125 8.640625 
Q 18.265625 7.078125 18.265625 4.734375 
Q 18.265625 2.484375 16.8125 0.96875 
Q 15.375 -0.53125 12.59375 -0.53125 
Q 9.8125 -0.53125 8.421875 0.96875 
Q 7.03125 2.484375 7.03125 4.734375 
z
" id="RobotoCondensed-Regular-46"/>
        <path d="M 9.234375 35.640625 
L 12.3125 71.09375 
L 43.21875 71.09375 
L 43.21875 62.75 
L 19.578125 62.75 
L 17.921875 43.359375 
Q 22.3125 46.4375 27.390625 46.4375 
Q 35.6875 46.4375 40.421875 39.984375 
Q 45.171875 33.546875 45.171875 22.65625 
Q 45.171875 11.625 40.015625 5.3125 
Q 34.859375 -0.984375 25.875 -0.984375 
Q 17.875 -0.984375 12.84375 4.234375 
Q 7.8125 9.46875 7.078125 18.703125 
L 15.1875 18.703125 
Q 15.921875 12.59375 18.671875 9.484375 
Q 21.4375 6.390625 25.875 6.390625 
Q 30.90625 6.390625 33.734375 10.765625 
Q 36.578125 15.140625 36.578125 22.5625 
Q 36.578125 29.546875 33.515625 33.9375 
Q 30.46875 38.328125 25.296875 38.328125 
Q 21 38.328125 18.40625 36.078125 
L 16.109375 33.796875 
z
" id="RobotoCondensed-Regular-53"/>
       </defs>
       <use xlink:href="#RobotoCondensed-Regular-48"/>
       <use x="49.365234" xlink:href="#RobotoCondensed-Regular-46"/>
       <use x="75.683594" xlink:href="#RobotoCondensed-Regular-48"/>
       <use x="125.048828" xlink:href="#RobotoCondensed-Regular-53"/>
      </g>
     </g>
    </g>
    <g id="ytick_3">
     <g id="line2d_9">
      <path clip-path="url(#p98722bc489)" d="M 63.23375 227.852273 
L 509.63375 227.852273 
" style="fill:none;stroke:#f0f5f5;stroke-linecap:round;stroke-width:2;"/>
     </g>
     <g id="line2d_10"/>
     <g id="text_5">
      <!-- 0.10 -->
      <g transform="translate(29.443438 234.602273)scale(0.18 -0.18)">
       <defs>
        <path d="M 31.453125 0 
L 22.75 0 
L 22.75 60.203125 
L 7.8125 53.515625 
L 7.8125 61.71875 
L 30.078125 71.4375 
L 31.453125 71.4375 
z
" id="RobotoCondensed-Regular-49"/>
       </defs>
       <use xlink:href="#RobotoCondensed-Regular-48"/>
       <use x="49.365234" xlink:href="#RobotoCondensed-Regular-46"/>
       <use x="75.683594" xlink:href="#RobotoCondensed-Regular-49"/>
       <use x="125.048828" xlink:href="#RobotoCondensed-Regular-48"/>
      </g>
     </g>
    </g>
    <g id="ytick_4">
     <g id="line2d_11">
      <path clip-path="url(#p98722bc489)" d="M 63.23375 188.317727 
L 509.63375 188.317727 
" style="fill:none;stroke:#f0f5f5;stroke-linecap:round;stroke-width:2;"/>
     </g>
     <g id="line2d_12"/>
     <g id="text_6">
      <!-- 0.15 -->
      <g transform="translate(29.443438 195.067727)scale(0.18 -0.18)">
       <use xlink:href="#RobotoCondensed-Regular-48"/>
       <use x="49.365234" xlink:href="#RobotoCondensed-Regular-46"/>
       <use x="75.683594" xlink:href="#RobotoCondensed-Regular-49"/>
       <use x="125.048828" xlink:href="#RobotoCondensed-Regular-53"/>
      </g>
     </g>
    </g>
    <g id="ytick_5">
     <g id="line2d_13">
      <path clip-path="url(#p98722bc489)" d="M 63.23375 148.783182 
L 509.63375 148.783182 
" style="fill:none;stroke:#f0f5f5;stroke-linecap:round;stroke-width:2;"/>
     </g>
     <g id="line2d_14"/>
     <g id="text_7">
      <!-- 0.20 -->
      <g transform="translate(29.443438 155.533182)scale(0.18 -0.18)">
       <defs>
        <path d="M 45.453125 0 
L 5.71875 0 
L 5.71875 6.5 
L 25.984375 33.34375 
Q 30.5625 39.546875 32.34375 43.53125 
Q 34.125 47.515625 34.125 51.953125 
Q 34.125 57.625 31.484375 61.140625 
Q 28.859375 64.65625 24.5625 64.65625 
Q 19.140625 64.65625 16.1875 60.90625 
Q 13.234375 57.171875 13.234375 50.140625 
L 4.59375 50.140625 
Q 4.59375 59.96875 9.953125 66.015625 
Q 15.328125 72.078125 24.5625 72.078125 
Q 33.0625 72.078125 37.9375 66.875 
Q 42.828125 61.671875 42.828125 53.03125 
Q 42.828125 42.484375 31.84375 28.078125 
L 16.015625 7.375 
L 45.453125 7.375 
z
" id="RobotoCondensed-Regular-50"/>
       </defs>
       <use xlink:href="#RobotoCondensed-Regular-48"/>
       <use x="49.365234" xlink:href="#RobotoCondensed-Regular-46"/>
       <use x="75.683594" xlink:href="#RobotoCondensed-Regular-50"/>
       <use x="125.048828" xlink:href="#RobotoCondensed-Regular-48"/>
      </g>
     </g>
    </g>
    <g id="ytick_6">
     <g id="line2d_15">
      <path clip-path="url(#p98722bc489)" d="M 63.23375 109.248636 
L 509.63375 109.248636 
" style="fill:none;stroke:#f0f5f5;stroke-linecap:round;stroke-width:2;"/>
     </g>
     <g id="line2d_16"/>
     <g id="text_8">
      <!-- 0.25 -->
      <g transform="translate(29.443438 115.998636)scale(0.18 -0.18)">
       <use xlink:href="#RobotoCondensed-Regular-48"/>
       <use x="49.365234" xlink:href="#RobotoCondensed-Regular-46"/>
       <use x="75.683594" xlink:href="#RobotoCondensed-Regular-50"/>
       <use x="125.048828" xlink:href="#RobotoCondensed-Regular-53"/>
      </g>
     </g>
    </g>
    <g id="ytick_7">
     <g id="line2d_17"/>
    </g>
    <g id="ytick_8">
     <g id="line2d_18"/>
    </g>
    <g id="ytick_9">
     <g id="line2d_19"/>
    </g>
    <g id="ytick_10">
     <g id="line2d_20"/>
    </g>
    <g id="ytick_11">
     <g id="line2d_21"/>
    </g>
    <g id="text_9">
     <!-- rule violation rate under adv. probing -->
     <g transform="translate(20.7 338.9)rotate(-90)scale(0.18 -0.18)">
      <defs>
       <path d="M 33.40625 4.640625 
Q 29.109375 -0.984375 20.84375 -0.984375 
Q 13.671875 -0.984375 10 3.96875 
Q 6.34375 8.9375 6.296875 18.40625 
L 6.296875 52.828125 
L 14.890625 52.828125 
L 14.890625 19.046875 
Q 14.890625 6.6875 22.3125 6.6875 
Q 30.171875 6.6875 33.15625 13.71875 
L 33.15625 52.828125 
L 41.796875 52.828125 
L 41.796875 0 
L 33.59375 0 
z
" id="RobotoCondensed-Regular-117"/>
       <path d="M 21.4375 13.140625 
L 31.453125 52.828125 
L 40.234375 52.828125 
L 24.5625 0 
L 18.109375 0 
L 2.25 52.828125 
L 11.03125 52.828125 
z
" id="RobotoCondensed-Regular-118"/>
       <path d="M 15.765625 0 
L 7.125 0 
L 7.125 52.828125 
L 15.765625 52.828125 
z
M 16.453125 66.84375 
Q 16.453125 64.65625 15.234375 63.1875 
Q 14.015625 61.71875 11.53125 61.71875 
Q 9.078125 61.71875 7.859375 63.1875 
Q 6.640625 64.65625 6.640625 66.84375 
Q 6.640625 69.046875 7.859375 70.5625 
Q 9.078125 72.078125 11.515625 72.078125 
Q 13.96875 72.078125 15.203125 70.53125 
Q 16.453125 69 16.453125 66.84375 
z
" id="RobotoCondensed-Regular-105"/>
       <path d="M 17.78125 65.625 
L 17.78125 52.828125 
L 25.734375 52.828125 
L 25.734375 45.84375 
L 17.78125 45.84375 
L 17.78125 13.09375 
Q 17.78125 9.96875 18.796875 8.34375 
Q 19.828125 6.734375 22.3125 6.734375 
Q 24.03125 6.734375 25.78125 7.328125 
L 25.6875 0 
Q 22.75 -0.984375 19.671875 -0.984375 
Q 14.546875 -0.984375 11.859375 2.671875 
Q 9.1875 6.34375 9.1875 13.03125 
L 9.1875 45.84375 
L 1.125 45.84375 
L 1.125 52.828125 
L 9.1875 52.828125 
L 9.1875 65.625 
z
" id="RobotoCondensed-Regular-116"/>
       <path d="M 44.625 23.875 
Q 44.625 11.328125 40.109375 5.171875 
Q 35.59375 -0.984375 27.34375 -0.984375 
Q 19.390625 -0.984375 15.09375 5.03125 
L 15.09375 -20.3125 
L 6.5 -20.3125 
L 6.5 52.828125 
L 14.3125 52.828125 
L 14.75 46.96875 
Q 19.09375 53.8125 27.203125 53.8125 
Q 35.890625 53.8125 40.1875 47.75 
Q 44.484375 41.703125 44.625 29.640625 
z
M 36.03125 28.8125 
Q 36.03125 37.703125 33.296875 41.921875 
Q 30.5625 46.140625 24.515625 46.140625 
Q 18.3125 46.140625 15.09375 39.9375 
L 15.09375 12.453125 
Q 18.265625 6.390625 24.609375 6.390625 
Q 30.46875 6.390625 33.21875 10.609375 
Q 35.984375 14.84375 36.03125 23.53125 
z
" id="RobotoCondensed-Regular-112"/>
       <path d="M 4.734375 28.8125 
Q 4.734375 41.15625 9.21875 47.484375 
Q 13.71875 53.8125 22.359375 53.8125 
Q 30.421875 53.8125 34.625 46.921875 
L 35.0625 52.828125 
L 42.875 52.828125 
L 42.875 -0.484375 
Q 42.875 -10.296875 37.84375 -15.546875 
Q 32.8125 -20.796875 23.828125 -20.796875 
Q 19.921875 -20.796875 15.0625 -18.859375 
Q 10.203125 -16.9375 7.765625 -14.109375 
L 11.28125 -8.15625 
Q 16.65625 -13.421875 23.140625 -13.421875 
Q 33.9375 -13.421875 34.234375 -1.65625 
L 34.234375 5.21875 
Q 30.03125 -0.984375 22.3125 -0.984375 
Q 14.109375 -0.984375 9.515625 5.1875 
Q 4.9375 11.375 4.734375 22.953125 
z
M 13.375 23.875 
Q 13.375 14.984375 15.984375 10.8125 
Q 18.609375 6.640625 24.5625 6.640625 
Q 31 6.640625 34.234375 13.234375 
L 34.234375 39.65625 
Q 30.859375 46.140625 24.65625 46.140625 
Q 18.703125 46.140625 16.0625 41.96875 
Q 13.421875 37.796875 13.375 29.15625 
z
" id="RobotoCondensed-Regular-103"/>
      </defs>
      <use xlink:href="#RobotoCondensed-Regular-114"/>
      <use x="30.419922" xlink:href="#RobotoCondensed-Regular-117"/>
      <use x="78.759766" xlink:href="#RobotoCondensed-Regular-108"/>
      <use x="101.660156" xlink:href="#RobotoCondensed-Regular-101"/>
      <use x="148.486328" xlink:href="#RobotoCondensed-Regular-32"/>
      <use x="171.386719" xlink:href="#RobotoCondensed-Regular-118"/>
      <use x="214.160156" xlink:href="#RobotoCondensed-Regular-105"/>
      <use x="237.060547" xlink:href="#RobotoCondensed-Regular-111"/>
      <use x="287.255859" xlink:href="#RobotoCondensed-Regular-108"/>
      <use x="310.15625" xlink:href="#RobotoCondensed-Regular-97"/>
      <use x="358.056641" xlink:href="#RobotoCondensed-Regular-116"/>
      <use x="387.597656" xlink:href="#RobotoCondensed-Regular-105"/>
      <use x="410.498047" xlink:href="#RobotoCondensed-Regular-111"/>
      <use x="460.693359" xlink:href="#RobotoCondensed-Regular-110"/>
      <use x="509.082031" xlink:href="#RobotoCondensed-Regular-32"/>
      <use x="531.982422" xlink:href="#RobotoCondensed-Regular-114"/>
      <use x="562.402344" xlink:href="#RobotoCondensed-Regular-97"/>
      <use x="610.302734" xlink:href="#RobotoCondensed-Regular-116"/>
      <use x="639.84375" xlink:href="#RobotoCondensed-Regular-101"/>
      <use x="686.669922" xlink:href="#RobotoCondensed-Regular-32"/>
      <use x="709.570312" xlink:href="#RobotoCondensed-Regular-117"/>
      <use x="757.910156" xlink:href="#RobotoCondensed-Regular-110"/>
      <use x="806.298828" xlink:href="#RobotoCondensed-Regular-100"/>
      <use x="855.908203" xlink:href="#RobotoCondensed-Regular-101"/>
      <use x="902.734375" xlink:href="#RobotoCondensed-Regular-114"/>
      <use x="933.154297" xlink:href="#RobotoCondensed-Regular-32"/>
      <use x="956.054688" xlink:href="#RobotoCondensed-Regular-97"/>
      <use x="1003.955078" xlink:href="#RobotoCondensed-Regular-100"/>
      <use x="1053.564453" xlink:href="#RobotoCondensed-Regular-118"/>
      <use x="1096.337891" xlink:href="#RobotoCondensed-Regular-46"/>
      <use x="1122.65625" xlink:href="#RobotoCondensed-Regular-32"/>
      <use x="1145.556641" xlink:href="#RobotoCondensed-Regular-112"/>
      <use x="1194.873047" xlink:href="#RobotoCondensed-Regular-114"/>
      <use x="1225.292969" xlink:href="#RobotoCondensed-Regular-111"/>
      <use x="1275.488281" xlink:href="#RobotoCondensed-Regular-98"/>
      <use x="1324.804688" xlink:href="#RobotoCondensed-Regular-105"/>
      <use x="1347.705078" xlink:href="#RobotoCondensed-Regular-110"/>
      <use x="1396.09375" xlink:href="#RobotoCondensed-Regular-103"/>
     </g>
    </g>
   </g>
   <g id="PolyCollection_1">
    <path clip-path="url(#p98722bc489)" d="M 201.888295 306.921364 
L 201.888295 243.698103 
L 235.706477 243.698103 
L 235.706477 306.921364 
z
" style="fill:#ff8a4f;"/>
    <path clip-path="url(#p98722bc489)" d="M 168.070114 306.921364 
L 168.070114 223.035038 
L 201.888295 223.035038 
L 201.888295 306.921364 
z
" style="fill:#14c8b9;"/>
    <path clip-path="url(#p98722bc489)" d="M 134.251932 306.921364 
L 134.251932 148.610164 
L 168.070114 148.610164 
L 168.070114 306.921364 
z
" style="fill:#123693;"/>
    <path clip-path="url(#p98722bc489)" d="M 404.797386 306.921364 
L 404.797386 244.682944 
L 438.615568 244.682944 
L 438.615568 306.921364 
z
" style="fill:#e1144b;"/>
    <path clip-path="url(#p98722bc489)" d="M 370.979205 306.921364 
L 370.979205 205.60933 
L 404.797386 205.60933 
L 404.797386 306.921364 
z
" style="fill:#ffdb13;"/>
    <path clip-path="url(#p98722bc489)" d="M 337.161023 306.921364 
L 337.161023 159.549286 
L 370.979205 159.549286 
L 370.979205 306.921364 
z
" style="fill:#ad70ff;"/>
   </g>
   <g id="LineCollection_1">
    <path clip-path="url(#p98722bc489)" d="M 139.324659 163.320309 
L 162.997386 163.320309 
" style="fill:none;stroke:#000000;stroke-width:0.886227;"/>
    <path clip-path="url(#p98722bc489)" d="M 139.324659 133.906688 
L 162.997386 133.906688 
" style="fill:none;stroke:#000000;stroke-width:0.886227;"/>
    <path clip-path="url(#p98722bc489)" d="M 151.161023 133.906688 
L 151.161023 163.320309 
" style="fill:none;stroke:#000000;stroke-width:0.886227;"/>
   </g>
   <g id="LineCollection_2">
    <path clip-path="url(#p98722bc489)" d="M 173.142841 234.112566 
L 196.815568 234.112566 
" style="fill:none;stroke:#000000;stroke-width:0.886227;"/>
    <path clip-path="url(#p98722bc489)" d="M 173.142841 211.965792 
L 196.815568 211.965792 
" style="fill:none;stroke:#000000;stroke-width:0.886227;"/>
    <path clip-path="url(#p98722bc489)" d="M 184.979205 211.965792 
L 184.979205 234.112566 
" style="fill:none;stroke:#000000;stroke-width:0.886227;"/>
   </g>
   <g id="LineCollection_3">
    <path clip-path="url(#p98722bc489)" d="M 206.961023 253.266708 
L 230.63375 253.266708 
" style="fill:none;stroke:#000000;stroke-width:0.886227;"/>
    <path clip-path="url(#p98722bc489)" d="M 206.961023 234.137931 
L 230.63375 234.137931 
" style="fill:none;stroke:#000000;stroke-width:0.886227;"/>
    <path clip-path="url(#p98722bc489)" d="M 218.797386 234.137931 
L 218.797386 253.266708 
" style="fill:none;stroke:#000000;stroke-width:0.886227;"/>
   </g>
   <g id="LineCollection_4">
    <path clip-path="url(#p98722bc489)" d="M 342.23375 174.00555 
L 365.906477 174.00555 
" style="fill:none;stroke:#000000;stroke-width:0.886227;"/>
    <path clip-path="url(#p98722bc489)" d="M 342.23375 145.100104 
L 365.906477 145.100104 
" style="fill:none;stroke:#000000;stroke-width:0.886227;"/>
    <path clip-path="url(#p98722bc489)" d="M 354.070114 145.100104 
L 354.070114 174.00555 
" style="fill:none;stroke:#000000;stroke-width:0.886227;"/>
   </g>
   <g id="LineCollection_5">
    <path clip-path="url(#p98722bc489)" d="M 376.051932 217.130825 
L 399.724659 217.130825 
" style="fill:none;stroke:#000000;stroke-width:0.886227;"/>
    <path clip-path="url(#p98722bc489)" d="M 376.051932 194.095156 
L 399.724659 194.095156 
" style="fill:none;stroke:#000000;stroke-width:0.886227;"/>
    <path clip-path="url(#p98722bc489)" d="M 387.888295 194.095156 
L 387.888295 217.130825 
" style="fill:none;stroke:#000000;stroke-width:0.886227;"/>
   </g>
   <g id="LineCollection_6">
    <path clip-path="url(#p98722bc489)" d="M 409.870114 254.622089 
L 433.542841 254.622089 
" style="fill:none;stroke:#000000;stroke-width:0.886227;"/>
    <path clip-path="url(#p98722bc489)" d="M 409.870114 234.7529 
L 433.542841 234.7529 
" style="fill:none;stroke:#000000;stroke-width:0.886227;"/>
    <path clip-path="url(#p98722bc489)" d="M 421.706477 234.7529 
L 421.706477 254.622089 
" style="fill:none;stroke:#000000;stroke-width:0.886227;"/>
   </g>
   <g id="patch_3">
    <path d="M 63.23375 316.805 
L 63.23375 99.365 
" style="fill:none;stroke:#000000;stroke-linecap:square;stroke-linejoin:miter;stroke-width:2;"/>
   </g>
   <g id="patch_4">
    <path d="M 63.23375 316.805 
L 509.63375 316.805 
" style="fill:none;stroke:#000000;stroke-linecap:square;stroke-linejoin:miter;stroke-width:2;"/>
   </g>
   <g id="patch_5">
    <path clip-path="url(#pa16b63e404)" d="M 54.135156 44.104375 
L 84.135156 44.104375 
L 84.135156 28.104375 
L 54.135156 28.104375 
z
" style="fill:none;"/>
   </g>
   <g id="patch_6">
    <path clip-path="url(#pa16b63e404)" d="M 54.135156 44.104375 
L 84.135156 44.104375 
L 84.135156 28.104375 
L 54.135156 28.104375 
z
" style="fill:#123693;"/>
   </g>
   <g id="text_10">
    <!-- DPC - choose search -->
    <g transform="translate(87.135156 41.02625)scale(0.18 -0.18)">
     <defs>
      <path d="M 7.671875 0 
L 7.671875 71.09375 
L 24.609375 71.09375 
Q 37.0625 71.09375 43.9375 63.296875 
Q 50.828125 55.515625 50.828125 41.40625 
L 50.828125 29.5 
Q 50.828125 15.375 43.84375 7.6875 
Q 36.859375 0 23.578125 0 
z
M 16.609375 63.375 
L 16.609375 7.671875 
L 23.78125 7.671875 
Q 33.203125 7.671875 37.546875 13.0625 
Q 41.890625 18.453125 42 29.046875 
L 42 41.65625 
Q 42 52.875 37.671875 58.125 
Q 33.34375 63.375 24.609375 63.375 
z
" id="RobotoCondensed-Regular-68"/>
      <path d="M 16.609375 27.828125 
L 16.609375 0 
L 7.671875 0 
L 7.671875 71.09375 
L 30.328125 71.09375 
Q 40.234375 71.09375 45.890625 65.15625 
Q 51.5625 59.234375 51.5625 49.359375 
Q 51.5625 39.109375 46.15625 33.5625 
Q 40.765625 28.03125 30.953125 27.828125 
z
M 16.609375 35.5 
L 30.328125 35.5 
Q 36.28125 35.5 39.453125 39.0625 
Q 42.625 42.625 42.625 49.265625 
Q 42.625 55.671875 39.34375 59.515625 
Q 36.078125 63.375 30.375 63.375 
L 16.609375 63.375 
z
" id="RobotoCondensed-Regular-80"/>
      <path d="M 52.25 22.5625 
Q 51.65625 11.140625 45.8125 5.078125 
Q 39.984375 -0.984375 29.34375 -0.984375 
Q 18.65625 -0.984375 12.359375 7.140625 
Q 6.0625 15.28125 6.0625 29.203125 
L 6.0625 42.09375 
Q 6.0625 55.953125 12.53125 64.015625 
Q 19 72.078125 30.171875 72.078125 
Q 40.484375 72.078125 46.125 65.890625 
Q 51.765625 59.71875 52.25 48.25 
L 43.21875 48.25 
Q 42.625 56.9375 39.546875 60.640625 
Q 36.46875 64.359375 30.171875 64.359375 
Q 22.90625 64.359375 19 58.671875 
Q 15.09375 52.984375 15.09375 42 
L 15.09375 28.953125 
Q 15.09375 18.171875 18.71875 12.40625 
Q 22.359375 6.640625 29.34375 6.640625 
Q 36.328125 6.640625 39.40625 10.109375 
Q 42.484375 13.578125 43.21875 22.5625 
z
" id="RobotoCondensed-Regular-67"/>
      <path d="M 22.46875 26.515625 
L 2.296875 26.515625 
L 2.296875 33.890625 
L 22.46875 33.890625 
z
" id="RobotoCondensed-Regular-45"/>
      <path d="M 24.8125 6.390625 
Q 29.109375 6.390625 31.6875 9.046875 
Q 34.28125 11.71875 34.515625 16.65625 
L 42.671875 16.65625 
Q 42.390625 9.03125 37.28125 4.015625 
Q 32.171875 -0.984375 24.8125 -0.984375 
Q 14.984375 -0.984375 9.828125 5.1875 
Q 4.6875 11.375 4.6875 23.578125 
L 4.6875 29.390625 
Q 4.6875 41.359375 9.8125 47.578125 
Q 14.9375 53.8125 24.75 53.8125 
Q 32.859375 53.8125 37.625 48.6875 
Q 42.390625 43.5625 42.671875 34.671875 
L 34.515625 34.671875 
Q 34.234375 40.53125 31.71875 43.453125 
Q 29.203125 46.390625 24.75 46.390625 
Q 19 46.390625 16.203125 42.59375 
Q 13.421875 38.8125 13.328125 30.171875 
L 13.328125 23.4375 
Q 13.328125 14.109375 16.078125 10.25 
Q 18.84375 6.390625 24.8125 6.390625 
z
" id="RobotoCondensed-Regular-99"/>
      <path d="M 15.09375 47.40625 
Q 20.015625 53.8125 27.6875 53.8125 
Q 41.703125 53.8125 41.890625 35.109375 
L 41.890625 0 
L 33.296875 0 
L 33.296875 34.71875 
Q 33.296875 40.921875 31.21875 43.53125 
Q 29.15625 46.140625 25 46.140625 
Q 21.78125 46.140625 19.21875 43.984375 
Q 16.65625 41.84375 15.09375 38.375 
L 15.09375 0 
L 6.453125 0 
L 6.453125 75 
L 15.09375 75 
z
" id="RobotoCondensed-Regular-104"/>
     </defs>
     <use xlink:href="#RobotoCondensed-Regular-68"/>
     <use x="57.080078" xlink:href="#RobotoCondensed-Regular-80"/>
     <use x="112.5" xlink:href="#RobotoCondensed-Regular-67"/>
     <use x="169.189453" xlink:href="#RobotoCondensed-Regular-32"/>
     <use x="192.089844" xlink:href="#RobotoCondensed-Regular-45"/>
     <use x="216.894531" xlink:href="#RobotoCondensed-Regular-32"/>
     <use x="239.794922" xlink:href="#RobotoCondensed-Regular-99"/>
     <use x="285.986328" xlink:href="#RobotoCondensed-Regular-104"/>
     <use x="334.277344" xlink:href="#RobotoCondensed-Regular-111"/>
     <use x="384.472656" xlink:href="#RobotoCondensed-Regular-111"/>
     <use x="434.667969" xlink:href="#RobotoCondensed-Regular-115"/>
     <use x="480.224609" xlink:href="#RobotoCondensed-Regular-101"/>
     <use x="527.050781" xlink:href="#RobotoCondensed-Regular-32"/>
     <use x="549.951172" xlink:href="#RobotoCondensed-Regular-115"/>
     <use x="595.507812" xlink:href="#RobotoCondensed-Regular-101"/>
     <use x="642.333984" xlink:href="#RobotoCondensed-Regular-97"/>
     <use x="690.234375" xlink:href="#RobotoCondensed-Regular-114"/>
     <use x="720.654297" xlink:href="#RobotoCondensed-Regular-99"/>
     <use x="766.845703" xlink:href="#RobotoCondensed-Regular-104"/>
    </g>
   </g>
   <g id="patch_7">
    <path clip-path="url(#p42b20f39aa)" d="M 54.135156 71.42375 
L 84.135156 71.42375 
L 84.135156 55.42375 
L 54.135156 55.42375 
z
" style="fill:none;"/>
   </g>
   <g id="patch_8">
    <path clip-path="url(#p42b20f39aa)" d="M 54.135156 71.42375 
L 84.135156 71.42375 
L 84.135156 55.42375 
L 54.135156 55.42375 
z
" style="fill:#ad70ff;"/>
   </g>
   <g id="text_11">
    <!-- DPC@8 -->
    <g transform="translate(87.135156 68.1825)scale(0.18 -0.18)">
     <use xlink:href="#RobotoCondensed-Regular-68"/>
     <use x="57.080078" xlink:href="#RobotoCondensed-Regular-80"/>
     <use x="112.5" xlink:href="#RobotoCondensed-Regular-67"/>
     <use x="169.189453" xlink:href="#RobotoCondensed-Regular-64"/>
     <use x="246.09375" xlink:href="#RobotoCondensed-Regular-56"/>
    </g>
   </g>
   <g id="patch_9">
    <path clip-path="url(#pb4e4be0a5a)" d="M 243.871719 44.104375 
L 273.871719 44.104375 
L 273.871719 28.104375 
L 243.871719 28.104375 
z
" style="fill:none;"/>
   </g>
   <g id="patch_10">
    <path clip-path="url(#pb4e4be0a5a)" d="M 243.871719 44.104375 
L 273.871719 44.104375 
L 273.871719 28.104375 
L 243.871719 28.104375 
z
" style="fill:#14c8b9;"/>
   </g>
   <g id="text_12">
    <!-- SFT - choose search -->
    <g transform="translate(276.871719 41.02625)scale(0.18 -0.18)">
     <defs>
      <path d="M 38.71875 17.96875 
Q 38.71875 23.296875 35.828125 26.125 
Q 32.953125 28.953125 25.4375 31.640625 
Q 17.921875 34.328125 13.9375 37.28125 
Q 9.96875 40.234375 7.984375 44.015625 
Q 6 47.796875 6 52.6875 
Q 6 61.140625 11.640625 66.609375 
Q 17.28125 72.078125 26.421875 72.078125 
Q 32.671875 72.078125 37.546875 69.265625 
Q 42.4375 66.453125 45.0625 61.46875 
Q 47.703125 56.5 47.703125 50.53125 
L 38.71875 50.53125 
Q 38.71875 57.125 35.546875 60.734375 
Q 32.375 64.359375 26.421875 64.359375 
Q 21 64.359375 18.015625 61.328125 
Q 15.046875 58.296875 15.046875 52.828125 
Q 15.046875 48.34375 18.265625 45.3125 
Q 21.484375 42.28125 28.21875 39.890625 
Q 38.71875 36.421875 43.234375 31.34375 
Q 47.75 26.265625 47.75 18.0625 
Q 47.75 9.421875 42.140625 4.21875 
Q 36.53125 -0.984375 26.859375 -0.984375 
Q 20.65625 -0.984375 15.40625 1.71875 
Q 10.15625 4.4375 7.15625 9.34375 
Q 4.15625 14.265625 4.15625 20.609375 
L 13.140625 20.609375 
Q 13.140625 14.015625 16.828125 10.34375 
Q 20.515625 6.6875 26.859375 6.6875 
Q 32.765625 6.6875 35.734375 9.71875 
Q 38.71875 12.75 38.71875 17.96875 
z
" id="RobotoCondensed-Regular-83"/>
      <path d="M 40.625 31.390625 
L 16.609375 31.390625 
L 16.609375 0 
L 7.671875 0 
L 7.671875 71.09375 
L 44.671875 71.09375 
L 44.671875 63.375 
L 16.609375 63.375 
L 16.609375 39.0625 
L 40.625 39.0625 
z
" id="RobotoCondensed-Regular-70"/>
      <path d="M 49.21875 63.375 
L 30.515625 63.375 
L 30.515625 0 
L 21.578125 0 
L 21.578125 63.375 
L 2.9375 63.375 
L 2.9375 71.09375 
L 49.21875 71.09375 
z
" id="RobotoCondensed-Regular-84"/>
     </defs>
     <use xlink:href="#RobotoCondensed-Regular-83"/>
     <use x="51.806641" xlink:href="#RobotoCondensed-Regular-70"/>
     <use x="99.853516" xlink:href="#RobotoCondensed-Regular-84"/>
     <use x="151.904297" xlink:href="#RobotoCondensed-Regular-32"/>
     <use x="174.804688" xlink:href="#RobotoCondensed-Regular-45"/>
     <use x="199.609375" xlink:href="#RobotoCondensed-Regular-32"/>
     <use x="222.509766" xlink:href="#RobotoCondensed-Regular-99"/>
     <use x="268.701172" xlink:href="#RobotoCondensed-Regular-104"/>
     <use x="316.992188" xlink:href="#RobotoCondensed-Regular-111"/>
     <use x="367.1875" xlink:href="#RobotoCondensed-Regular-111"/>
     <use x="417.382812" xlink:href="#RobotoCondensed-Regular-115"/>
     <use x="462.939453" xlink:href="#RobotoCondensed-Regular-101"/>
     <use x="509.765625" xlink:href="#RobotoCondensed-Regular-32"/>
     <use x="532.666016" xlink:href="#RobotoCondensed-Regular-115"/>
     <use x="578.222656" xlink:href="#RobotoCondensed-Regular-101"/>
     <use x="625.048828" xlink:href="#RobotoCondensed-Regular-97"/>
     <use x="672.949219" xlink:href="#RobotoCondensed-Regular-114"/>
     <use x="703.369141" xlink:href="#RobotoCondensed-Regular-99"/>
     <use x="749.560547" xlink:href="#RobotoCondensed-Regular-104"/>
    </g>
   </g>
   <g id="patch_11">
    <path clip-path="url(#p1b6d9f73e0)" d="M 243.871719 71.42375 
L 273.871719 71.42375 
L 273.871719 55.42375 
L 243.871719 55.42375 
z
" style="fill:none;"/>
   </g>
   <g id="patch_12">
    <path clip-path="url(#p1b6d9f73e0)" d="M 243.871719 71.42375 
L 273.871719 71.42375 
L 273.871719 55.42375 
L 243.871719 55.42375 
z
" style="fill:#ffdb13;"/>
   </g>
   <g id="text_13">
    <!-- SFT@8 -->
    <g transform="translate(276.871719 68.1825)scale(0.18 -0.18)">
     <use xlink:href="#RobotoCondensed-Regular-83"/>
     <use x="51.806641" xlink:href="#RobotoCondensed-Regular-70"/>
     <use x="99.853516" xlink:href="#RobotoCondensed-Regular-84"/>
     <use x="151.904297" xlink:href="#RobotoCondensed-Regular-64"/>
     <use x="228.808594" xlink:href="#RobotoCondensed-Regular-56"/>
    </g>
   </g>
   <g id="patch_13">
    <path clip-path="url(#pdb1e94f216)" d="M 430.497656 43.94125 
L 460.497656 43.94125 
L 460.497656 27.94125 
L 430.497656 27.94125 
z
" style="fill:none;"/>
   </g>
   <g id="patch_14">
    <path clip-path="url(#pdb1e94f216)" d="M 430.497656 43.94125 
L 460.497656 43.94125 
L 460.497656 27.94125 
L 430.497656 27.94125 
z
" style="fill:#ff8a4f;"/>
   </g>
   <g id="text_14">
    <!-- RL@2 -->
    <g transform="translate(463.497656 40.7)scale(0.18 -0.18)">
     <defs>
      <path d="M 29.15625 28.765625 
L 16.65625 28.765625 
L 16.65625 0 
L 7.671875 0 
L 7.671875 71.09375 
L 27.59375 71.09375 
Q 38.03125 71.09375 43.40625 65.640625 
Q 48.78125 60.203125 48.78125 49.703125 
Q 48.78125 43.109375 45.875 38.203125 
Q 42.96875 33.296875 37.640625 30.8125 
L 51.421875 0.59375 
L 51.421875 0 
L 41.796875 0 
z
M 16.65625 36.421875 
L 27.484375 36.421875 
Q 33.109375 36.421875 36.453125 40.03125 
Q 39.796875 43.65625 39.796875 49.703125 
Q 39.796875 63.375 27.390625 63.375 
L 16.65625 63.375 
z
" id="RobotoCondensed-Regular-82"/>
      <path d="M 16.65625 7.671875 
L 44.53125 7.671875 
L 44.53125 0 
L 7.671875 0 
L 7.671875 71.09375 
L 16.65625 71.09375 
z
" id="RobotoCondensed-Regular-76"/>
     </defs>
     <use xlink:href="#RobotoCondensed-Regular-82"/>
     <use x="53.076172" xlink:href="#RobotoCondensed-Regular-76"/>
     <use x="100.585938" xlink:href="#RobotoCondensed-Regular-64"/>
     <use x="177.490234" xlink:href="#RobotoCondensed-Regular-50"/>
    </g>
   </g>
   <g id="patch_15">
    <path clip-path="url(#p01f47912c6)" d="M 430.497656 71.42375 
L 460.497656 71.42375 
L 460.497656 55.42375 
L 430.497656 55.42375 
z
" style="fill:none;"/>
   </g>
   <g id="patch_16">
    <path clip-path="url(#p01f47912c6)" d="M 430.497656 71.42375 
L 460.497656 71.42375 
L 460.497656 55.42375 
L 430.497656 55.42375 
z
" style="fill:#e1144b;"/>
   </g>
   <g id="text_15">
    <!-- RL@8 -->
    <g transform="translate(463.497656 68.1825)scale(0.18 -0.18)">
     <use xlink:href="#RobotoCondensed-Regular-82"/>
     <use x="53.076172" xlink:href="#RobotoCondensed-Regular-76"/>
     <use x="100.585938" xlink:href="#RobotoCondensed-Regular-64"/>
     <use x="177.490234" xlink:href="#RobotoCondensed-Regular-56"/>
    </g>
   </g>
  </g>
 </g>
 <defs>
  <clipPath id="p98722bc489">
   <rect height="217.44" width="446.4" x="63.23375" y="99.365"/>
  </clipPath>
  <clipPath id="pa16b63e404">
   <path d="M 54.135156 44.104375 
L 54.135156 28.104375 
L 84.135156 28.104375 
L 84.135156 44.104375 
"/>
  </clipPath>
  <clipPath id="p42b20f39aa">
   <path d="M 54.135156 71.42375 
L 54.135156 55.42375 
L 84.135156 55.42375 
L 84.135156 71.42375 
"/>
  </clipPath>
  <clipPath id="pb4e4be0a5a">
   <path d="M 243.871719 44.104375 
L 243.871719 28.104375 
L 273.871719 28.104375 
L 273.871719 44.104375 
"/>
  </clipPath>
  <clipPath id="p1b6d9f73e0">
   <path d="M 243.871719 71.42375 
L 243.871719 55.42375 
L 273.871719 55.42375 
L 273.871719 71.42375 
"/>
  </clipPath>
  <clipPath id="pdb1e94f216">
   <path d="M 430.497656 43.94125 
L 430.497656 27.94125 
L 460.497656 27.94125 
L 460.497656 43.94125 
"/>
  </clipPath>
  <clipPath id="p01f47912c6">
   <path d="M 430.497656 71.42375 
L 430.497656 55.42375 
L 460.497656 55.42375 
L 460.497656 71.42375 
"/>
  </clipPath>
 </defs>
</svg>
