<?xml version="1.0" encoding="utf-8" standalone="no"?>
<!DOCTYPE svg PUBLIC "-//W3C//DTD SVG 1.1//EN"
  "http://www.w3.org/Graphics/SVG/1.1/DTD/svg11.dtd">
<!-- Created with matplotlib (https://matplotlib.org/) -->
<svg height="401.888618pt" version="1.1" viewBox="0 0 753.130312 401.888618" width="753.130312pt" xmlns="http://www.w3.org/2000/svg" xmlns:xlink="http://www.w3.org/1999/xlink">
 <metadata>
  <rdf:RDF xmlns:cc="http://creativecommons.org/ns#" xmlns:dc="http://purl.org/dc/elements/1.1/" xmlns:rdf="http://www.w3.org/1999/02/22-rdf-syntax-ns#">
   <cc:Work>
    <dc:type rdf:resource="http://purl.org/dc/dcmitype/StillImage"/>
    <dc:date>2022-09-09T13:26:31.487974</dc:date>
    <dc:format>image/svg+xml</dc:format>
    <dc:creator>
     <cc:Agent>
      <dc:title>Matplotlib v3.3.4, https://matplotlib.org/</dc:title>
     </cc:Agent>
    </dc:creator>
   </cc:Work>
  </rdf:RDF>
 </metadata>
 <defs>
  <style type="text/css">*{stroke-linecap:butt;stroke-linejoin:round;}</style>
 </defs>
 <g id="figure_1">
  <g id="patch_1">
   <path d="M 0 401.888618 
L 753.130312 401.888618 
L 753.130312 0 
L 0 0 
z
" style="fill:#ffffff;"/>
  </g>
  <g id="axes_1">
   <g id="patch_2">
    <path d="M 54.4475 342 
L 389.2475 342 
L 389.2475 7.2 
L 54.4475 7.2 
z
" style="fill:#ffffff;"/>
   </g>
   <g id="matplotlib.axis_1">
    <g id="xtick_1">
     <g id="line2d_1">
      <path clip-path="url(#p0bcdacefb0)" d="M 374.029318 342 
L 374.029318 7.2 
" style="fill:none;stroke:#f0f5f5;stroke-linecap:round;stroke-width:2;"/>
     </g>
     <g id="line2d_2"/>
     <g id="text_1">
      <!-- 0 -->
      <g transform="translate(365.161536 360.228364)rotate(-45)scale(0.18 -0.18)">
       <defs>
        <path d="M 43.703125 30.328125 
Q 43.703125 14.59375 39.109375 6.796875 
Q 34.515625 -0.984375 24.703125 -0.984375 
Q 15.1875 -0.984375 10.5 6.484375 
Q 5.8125 13.96875 5.609375 28.953125 
L 5.609375 41.15625 
Q 5.609375 56.734375 10.21875 64.40625 
Q 14.84375 72.078125 24.609375 72.078125 
Q 34.234375 72.078125 38.84375 64.796875 
Q 43.453125 57.515625 43.703125 42.78125 
z
M 35.0625 42.671875 
Q 35.0625 53.953125 32.5625 59.296875 
Q 30.078125 64.65625 24.609375 64.65625 
Q 19.28125 64.65625 16.796875 59.40625 
Q 14.3125 54.15625 14.203125 43.5625 
L 14.203125 28.90625 
Q 14.203125 17.671875 16.796875 12.03125 
Q 19.390625 6.390625 24.703125 6.390625 
Q 29.984375 6.390625 32.46875 11.71875 
Q 34.96875 17.046875 35.0625 27.984375 
z
" id="RobotoCondensed-Regular-48"/>
       </defs>
       <use xlink:href="#RobotoCondensed-Regular-48"/>
      </g>
     </g>
    </g>
    <g id="xtick_2">
     <g id="line2d_3">
      <path clip-path="url(#p0bcdacefb0)" d="M 313.156591 342 
L 313.156591 7.2 
" style="fill:none;stroke:#f0f5f5;stroke-linecap:round;stroke-width:2;"/>
     </g>
     <g id="line2d_4"/>
     <g id="text_2">
      <!-- 0.1 -->
      <g transform="translate(294.657352 369.859822)rotate(-45)scale(0.18 -0.18)">
       <defs>
        <path d="M 7.03125 4.734375 
Q 7.03125 7.078125 8.421875 8.640625 
Q 9.8125 10.203125 12.59375 10.203125 
Q 15.375 10.203125 16.8125 8.640625 
Q 18.265625 7.078125 18.265625 4.734375 
Q 18.265625 2.484375 16.8125 0.96875 
Q 15.375 -0.53125 12.59375 -0.53125 
Q 9.8125 -0.53125 8.421875 0.96875 
Q 7.03125 2.484375 7.03125 4.734375 
z
" id="RobotoCondensed-Regular-46"/>
        <path d="M 31.453125 0 
L 22.75 0 
L 22.75 60.203125 
L 7.8125 53.515625 
L 7.8125 61.71875 
L 30.078125 71.4375 
L 31.453125 71.4375 
z
" id="RobotoCondensed-Regular-49"/>
       </defs>
       <use xlink:href="#RobotoCondensed-Regular-48"/>
       <use x="49.365234" xlink:href="#RobotoCondensed-Regular-46"/>
       <use x="75.683594" xlink:href="#RobotoCondensed-Regular-49"/>
      </g>
     </g>
    </g>
    <g id="xtick_3">
     <g id="line2d_5">
      <path clip-path="url(#p0bcdacefb0)" d="M 252.283864 342 
L 252.283864 7.2 
" style="fill:none;stroke:#f0f5f5;stroke-linecap:round;stroke-width:2;"/>
     </g>
     <g id="line2d_6"/>
     <g id="text_3">
      <!-- 0.2 -->
      <g transform="translate(233.784624 369.859822)rotate(-45)scale(0.18 -0.18)">
       <defs>
        <path d="M 45.453125 0 
L 5.71875 0 
L 5.71875 6.5 
L 25.984375 33.34375 
Q 30.5625 39.546875 32.34375 43.53125 
Q 34.125 47.515625 34.125 51.953125 
Q 34.125 57.625 31.484375 61.140625 
Q 28.859375 64.65625 24.5625 64.65625 
Q 19.140625 64.65625 16.1875 60.90625 
Q 13.234375 57.171875 13.234375 50.140625 
L 4.59375 50.140625 
Q 4.59375 59.96875 9.953125 66.015625 
Q 15.328125 72.078125 24.5625 72.078125 
Q 33.0625 72.078125 37.9375 66.875 
Q 42.828125 61.671875 42.828125 53.03125 
Q 42.828125 42.484375 31.84375 28.078125 
L 16.015625 7.375 
L 45.453125 7.375 
z
" id="RobotoCondensed-Regular-50"/>
       </defs>
       <use xlink:href="#RobotoCondensed-Regular-48"/>
       <use x="49.365234" xlink:href="#RobotoCondensed-Regular-46"/>
       <use x="75.683594" xlink:href="#RobotoCondensed-Regular-50"/>
      </g>
     </g>
    </g>
    <g id="xtick_4">
     <g id="line2d_7">
      <path clip-path="url(#p0bcdacefb0)" d="M 191.411136 342 
L 191.411136 7.2 
" style="fill:none;stroke:#f0f5f5;stroke-linecap:round;stroke-width:2;"/>
     </g>
     <g id="line2d_8"/>
     <g id="text_4">
      <!-- 0.3 -->
      <g transform="translate(172.911897 369.859822)rotate(-45)scale(0.18 -0.18)">
       <defs>
        <path d="M 16.75 39.9375 
L 22.265625 39.9375 
Q 27.59375 39.9375 30.46875 43.203125 
Q 33.34375 46.484375 33.34375 52.15625 
Q 33.34375 64.65625 23.6875 64.65625 
Q 19.046875 64.65625 16.40625 61.28125 
Q 13.765625 57.90625 13.765625 52.4375 
L 5.171875 52.4375 
Q 5.171875 60.984375 10.375 66.53125 
Q 15.578125 72.078125 23.6875 72.078125 
Q 32.078125 72.078125 37 66.828125 
Q 41.9375 61.578125 41.9375 51.953125 
Q 41.9375 47.015625 39.375 42.75 
Q 36.8125 38.484375 32.71875 36.46875 
Q 42.78125 32.765625 42.78125 19.828125 
Q 42.78125 10.296875 37.46875 4.65625 
Q 32.171875 -0.984375 23.640625 -0.984375 
Q 15.1875 -0.984375 9.984375 4.359375 
Q 4.78125 9.71875 4.78125 18.75 
L 13.421875 18.75 
Q 13.421875 13.09375 16.15625 9.734375 
Q 18.890625 6.390625 23.640625 6.390625 
Q 28.46875 6.390625 31.328125 9.65625 
Q 34.1875 12.9375 34.1875 19.625 
Q 34.1875 32.5625 21.921875 32.5625 
L 16.75 32.5625 
z
" id="RobotoCondensed-Regular-51"/>
       </defs>
       <use xlink:href="#RobotoCondensed-Regular-48"/>
       <use x="49.365234" xlink:href="#RobotoCondensed-Regular-46"/>
       <use x="75.683594" xlink:href="#RobotoCondensed-Regular-51"/>
      </g>
     </g>
    </g>
    <g id="xtick_5">
     <g id="line2d_9">
      <path clip-path="url(#p0bcdacefb0)" d="M 130.538409 342 
L 130.538409 7.2 
" style="fill:none;stroke:#f0f5f5;stroke-linecap:round;stroke-width:2;"/>
     </g>
     <g id="line2d_10"/>
     <g id="text_5">
      <!-- 0.4 -->
      <g transform="translate(112.03917 369.859822)rotate(-45)scale(0.18 -0.18)">
       <defs>
        <path d="M 38.421875 23.875 
L 46.34375 23.875 
L 46.34375 16.5 
L 38.421875 16.5 
L 38.421875 0 
L 29.78125 0 
L 29.78125 16.5 
L 2.9375 16.5 
L 2.9375 21.828125 
L 29.34375 71.09375 
L 38.421875 71.09375 
z
M 12.5 23.875 
L 29.78125 23.875 
L 29.78125 57.671875 
z
" id="RobotoCondensed-Regular-52"/>
       </defs>
       <use xlink:href="#RobotoCondensed-Regular-48"/>
       <use x="49.365234" xlink:href="#RobotoCondensed-Regular-46"/>
       <use x="75.683594" xlink:href="#RobotoCondensed-Regular-52"/>
      </g>
     </g>
    </g>
    <g id="xtick_6">
     <g id="line2d_11">
      <path clip-path="url(#p0bcdacefb0)" d="M 69.665682 342 
L 69.665682 7.2 
" style="fill:none;stroke:#f0f5f5;stroke-linecap:round;stroke-width:2;"/>
     </g>
     <g id="line2d_12"/>
     <g id="text_6">
      <!-- 0.5 -->
      <g transform="translate(51.166443 369.859822)rotate(-45)scale(0.18 -0.18)">
       <defs>
        <path d="M 9.234375 35.640625 
L 12.3125 71.09375 
L 43.21875 71.09375 
L 43.21875 62.75 
L 19.578125 62.75 
L 17.921875 43.359375 
Q 22.3125 46.4375 27.390625 46.4375 
Q 35.6875 46.4375 40.421875 39.984375 
Q 45.171875 33.546875 45.171875 22.65625 
Q 45.171875 11.625 40.015625 5.3125 
Q 34.859375 -0.984375 25.875 -0.984375 
Q 17.875 -0.984375 12.84375 4.234375 
Q 7.8125 9.46875 7.078125 18.703125 
L 15.1875 18.703125 
Q 15.921875 12.59375 18.671875 9.484375 
Q 21.4375 6.390625 25.875 6.390625 
Q 30.90625 6.390625 33.734375 10.765625 
Q 36.578125 15.140625 36.578125 22.5625 
Q 36.578125 29.546875 33.515625 33.9375 
Q 30.46875 38.328125 25.296875 38.328125 
Q 21 38.328125 18.40625 36.078125 
L 16.109375 33.796875 
z
" id="RobotoCondensed-Regular-53"/>
       </defs>
       <use xlink:href="#RobotoCondensed-Regular-48"/>
       <use x="49.365234" xlink:href="#RobotoCondensed-Regular-46"/>
       <use x="75.683594" xlink:href="#RobotoCondensed-Regular-53"/>
      </g>
     </g>
    </g>
    <g id="xtick_7">
     <g id="line2d_13"/>
    </g>
    <g id="xtick_8">
     <g id="line2d_14"/>
    </g>
    <g id="xtick_9">
     <g id="line2d_15"/>
    </g>
    <g id="xtick_10">
     <g id="line2d_16"/>
    </g>
    <g id="xtick_11">
     <g id="line2d_17"/>
    </g>
    <g id="text_7">
     <!-- violation rate under adv. probing -->
     <g transform="translate(101.779062 390.945181)scale(0.18 -0.18)">
      <defs>
       <path d="M 21.4375 13.140625 
L 31.453125 52.828125 
L 40.234375 52.828125 
L 24.5625 0 
L 18.109375 0 
L 2.25 52.828125 
L 11.03125 52.828125 
z
" id="RobotoCondensed-Regular-118"/>
       <path d="M 15.765625 0 
L 7.125 0 
L 7.125 52.828125 
L 15.765625 52.828125 
z
M 16.453125 66.84375 
Q 16.453125 64.65625 15.234375 63.1875 
Q 14.015625 61.71875 11.53125 61.71875 
Q 9.078125 61.71875 7.859375 63.1875 
Q 6.640625 64.65625 6.640625 66.84375 
Q 6.640625 69.046875 7.859375 70.5625 
Q 9.078125 72.078125 11.515625 72.078125 
Q 13.96875 72.078125 15.203125 70.53125 
Q 16.453125 69 16.453125 66.84375 
z
" id="RobotoCondensed-Regular-105"/>
       <path d="M 4.640625 28.859375 
Q 4.640625 40.375 10.234375 47.09375 
Q 15.828125 53.8125 25 53.8125 
Q 34.1875 53.8125 39.765625 47.265625 
Q 45.359375 40.71875 45.515625 29.4375 
L 45.515625 23.875 
Q 45.515625 12.40625 39.9375 5.703125 
Q 34.375 -0.984375 25.09375 -0.984375 
Q 15.921875 -0.984375 10.375 5.515625 
Q 4.828125 12.015625 4.640625 23.09375 
z
M 13.28125 23.875 
Q 13.28125 15.71875 16.46875 11.046875 
Q 19.671875 6.390625 25.09375 6.390625 
Q 36.53125 6.390625 36.859375 22.90625 
L 36.859375 28.859375 
Q 36.859375 36.96875 33.640625 41.671875 
Q 30.421875 46.390625 25 46.390625 
Q 19.671875 46.390625 16.46875 41.671875 
Q 13.28125 36.96875 13.28125 28.90625 
z
" id="RobotoCondensed-Regular-111"/>
       <path d="M 15.765625 0 
L 7.125 0 
L 7.125 75 
L 15.765625 75 
z
" id="RobotoCondensed-Regular-108"/>
       <path d="M 33.640625 0 
Q 32.859375 1.703125 32.515625 5.765625 
Q 27.9375 -0.984375 20.796875 -0.984375 
Q 13.625 -0.984375 9.59375 3.046875 
Q 5.5625 7.078125 5.5625 14.40625 
Q 5.5625 22.46875 11.03125 27.203125 
Q 16.5 31.9375 26.03125 32.03125 
L 32.375 32.03125 
L 32.375 37.640625 
Q 32.375 42.390625 30.265625 44.390625 
Q 28.171875 46.390625 23.875 46.390625 
Q 19.96875 46.390625 17.53125 44.0625 
Q 15.09375 41.75 15.09375 38.1875 
L 6.453125 38.1875 
Q 6.453125 42.234375 8.84375 45.921875 
Q 11.234375 49.609375 15.28125 51.703125 
Q 19.34375 53.8125 24.3125 53.8125 
Q 32.421875 53.8125 36.640625 49.78125 
Q 40.875 45.75 40.96875 38.03125 
L 40.96875 11.375 
Q 41.015625 5.28125 42.625 0.78125 
L 42.625 0 
z
M 22.125 6.890625 
Q 25.296875 6.890625 28.171875 8.640625 
Q 31.0625 10.40625 32.375 13.03125 
L 32.375 25.640625 
L 27.484375 25.640625 
Q 21.34375 25.53125 17.765625 22.875 
Q 14.203125 20.21875 14.203125 15.4375 
Q 14.203125 10.9375 16.015625 8.90625 
Q 17.828125 6.890625 22.125 6.890625 
z
" id="RobotoCondensed-Regular-97"/>
       <path d="M 17.78125 65.625 
L 17.78125 52.828125 
L 25.734375 52.828125 
L 25.734375 45.84375 
L 17.78125 45.84375 
L 17.78125 13.09375 
Q 17.78125 9.96875 18.796875 8.34375 
Q 19.828125 6.734375 22.3125 6.734375 
Q 24.03125 6.734375 25.78125 7.328125 
L 25.6875 0 
Q 22.75 -0.984375 19.671875 -0.984375 
Q 14.546875 -0.984375 11.859375 2.671875 
Q 9.1875 6.34375 9.1875 13.03125 
L 9.1875 45.84375 
L 1.125 45.84375 
L 1.125 52.828125 
L 9.1875 52.828125 
L 9.1875 65.625 
z
" id="RobotoCondensed-Regular-116"/>
       <path d="M 14.59375 52.828125 
L 14.84375 47.125 
Q 19.875 53.8125 27.6875 53.8125 
Q 41.703125 53.8125 41.890625 35.109375 
L 41.890625 0 
L 33.296875 0 
L 33.296875 34.71875 
Q 33.296875 40.921875 31.21875 43.53125 
Q 29.15625 46.140625 25 46.140625 
Q 21.78125 46.140625 19.21875 43.984375 
Q 16.65625 41.84375 15.09375 38.375 
L 15.09375 0 
L 6.453125 0 
L 6.453125 52.828125 
z
" id="RobotoCondensed-Regular-110"/>
       <path id="RobotoCondensed-Regular-32"/>
       <path d="M 28.265625 44.734375 
Q 26.46875 45.0625 24.359375 45.0625 
Q 17.71875 45.0625 15.09375 37.796875 
L 15.09375 0 
L 6.453125 0 
L 6.453125 52.828125 
L 14.84375 52.828125 
L 14.984375 47.46875 
Q 18.453125 53.8125 24.8125 53.8125 
Q 26.859375 53.8125 28.21875 53.125 
z
" id="RobotoCondensed-Regular-114"/>
       <path d="M 25.34375 -0.984375 
Q 15.484375 -0.984375 10.203125 4.90625 
Q 4.9375 10.796875 4.828125 22.171875 
L 4.828125 28.5625 
Q 4.828125 40.375 9.984375 47.09375 
Q 15.140625 53.8125 24.359375 53.8125 
Q 33.640625 53.8125 38.234375 47.90625 
Q 42.828125 42 42.921875 29.5 
L 42.921875 23.828125 
L 13.421875 23.828125 
L 13.421875 22.609375 
Q 13.421875 14.109375 16.625 10.25 
Q 19.828125 6.390625 25.828125 6.390625 
Q 29.640625 6.390625 32.546875 7.828125 
Q 35.453125 9.28125 37.984375 12.40625 
L 42.484375 6.9375 
Q 36.859375 -0.984375 25.34375 -0.984375 
z
M 24.359375 46.390625 
Q 19 46.390625 16.40625 42.703125 
Q 13.8125 39.015625 13.484375 31.25 
L 34.28125 31.25 
L 34.28125 32.421875 
Q 33.9375 39.9375 31.5625 43.15625 
Q 29.203125 46.390625 24.359375 46.390625 
z
" id="RobotoCondensed-Regular-101"/>
       <path d="M 33.40625 4.640625 
Q 29.109375 -0.984375 20.84375 -0.984375 
Q 13.671875 -0.984375 10 3.96875 
Q 6.34375 8.9375 6.296875 18.40625 
L 6.296875 52.828125 
L 14.890625 52.828125 
L 14.890625 19.046875 
Q 14.890625 6.6875 22.3125 6.6875 
Q 30.171875 6.6875 33.15625 13.71875 
L 33.15625 52.828125 
L 41.796875 52.828125 
L 41.796875 0 
L 33.59375 0 
z
" id="RobotoCondensed-Regular-117"/>
       <path d="M 4.640625 28.8125 
Q 4.640625 41.015625 9.203125 47.40625 
Q 13.765625 53.8125 22.3125 53.8125 
Q 29.890625 53.8125 34.125 47.65625 
L 34.125 75 
L 42.78125 75 
L 42.78125 0 
L 34.859375 0 
L 34.421875 5.671875 
Q 30.171875 -0.984375 22.265625 -0.984375 
Q 14.0625 -0.984375 9.390625 5.390625 
Q 4.734375 11.765625 4.640625 23.390625 
z
M 13.28125 23.875 
Q 13.28125 14.984375 15.921875 10.8125 
Q 18.5625 6.640625 24.515625 6.640625 
Q 30.953125 6.640625 34.125 13.140625 
L 34.125 39.796875 
Q 30.8125 46.140625 24.5625 46.140625 
Q 18.609375 46.140625 15.96875 41.96875 
Q 13.328125 37.796875 13.28125 29.15625 
z
" id="RobotoCondensed-Regular-100"/>
       <path d="M 44.625 23.875 
Q 44.625 11.328125 40.109375 5.171875 
Q 35.59375 -0.984375 27.34375 -0.984375 
Q 19.390625 -0.984375 15.09375 5.03125 
L 15.09375 -20.3125 
L 6.5 -20.3125 
L 6.5 52.828125 
L 14.3125 52.828125 
L 14.75 46.96875 
Q 19.09375 53.8125 27.203125 53.8125 
Q 35.890625 53.8125 40.1875 47.75 
Q 44.484375 41.703125 44.625 29.640625 
z
M 36.03125 28.8125 
Q 36.03125 37.703125 33.296875 41.921875 
Q 30.5625 46.140625 24.515625 46.140625 
Q 18.3125 46.140625 15.09375 39.9375 
L 15.09375 12.453125 
Q 18.265625 6.390625 24.609375 6.390625 
Q 30.46875 6.390625 33.21875 10.609375 
Q 35.984375 14.84375 36.03125 23.53125 
z
" id="RobotoCondensed-Regular-112"/>
       <path d="M 44.734375 23.875 
Q 44.734375 11.53125 40.28125 5.265625 
Q 35.84375 -0.984375 27.390625 -0.984375 
Q 19 -0.984375 14.796875 6.25 
L 14.359375 0 
L 6.5 0 
L 6.5 75 
L 15.09375 75 
L 15.09375 47.015625 
Q 19.34375 53.8125 27.296875 53.8125 
Q 35.984375 53.8125 40.328125 47.65625 
Q 44.671875 41.5 44.734375 29.109375 
z
M 36.140625 28.8125 
Q 36.140625 38.1875 33.515625 42.15625 
Q 30.90625 46.140625 25.046875 46.140625 
Q 18.359375 46.140625 15.09375 38.921875 
L 15.09375 13.765625 
Q 18.3125 6.640625 25.140625 6.640625 
Q 31 6.640625 33.53125 10.734375 
Q 36.078125 14.84375 36.140625 23.484375 
z
" id="RobotoCondensed-Regular-98"/>
       <path d="M 4.734375 28.8125 
Q 4.734375 41.15625 9.21875 47.484375 
Q 13.71875 53.8125 22.359375 53.8125 
Q 30.421875 53.8125 34.625 46.921875 
L 35.0625 52.828125 
L 42.875 52.828125 
L 42.875 -0.484375 
Q 42.875 -10.296875 37.84375 -15.546875 
Q 32.8125 -20.796875 23.828125 -20.796875 
Q 19.921875 -20.796875 15.0625 -18.859375 
Q 10.203125 -16.9375 7.765625 -14.109375 
L 11.28125 -8.15625 
Q 16.65625 -13.421875 23.140625 -13.421875 
Q 33.9375 -13.421875 34.234375 -1.65625 
L 34.234375 5.21875 
Q 30.03125 -0.984375 22.3125 -0.984375 
Q 14.109375 -0.984375 9.515625 5.1875 
Q 4.9375 11.375 4.734375 22.953125 
z
M 13.375 23.875 
Q 13.375 14.984375 15.984375 10.8125 
Q 18.609375 6.640625 24.5625 6.640625 
Q 31 6.640625 34.234375 13.234375 
L 34.234375 39.65625 
Q 30.859375 46.140625 24.65625 46.140625 
Q 18.703125 46.140625 16.0625 41.96875 
Q 13.421875 37.796875 13.375 29.15625 
z
" id="RobotoCondensed-Regular-103"/>
      </defs>
      <use xlink:href="#RobotoCondensed-Regular-118"/>
      <use x="42.773438" xlink:href="#RobotoCondensed-Regular-105"/>
      <use x="65.673828" xlink:href="#RobotoCondensed-Regular-111"/>
      <use x="115.869141" xlink:href="#RobotoCondensed-Regular-108"/>
      <use x="138.769531" xlink:href="#RobotoCondensed-Regular-97"/>
      <use x="186.669922" xlink:href="#RobotoCondensed-Regular-116"/>
      <use x="216.210938" xlink:href="#RobotoCondensed-Regular-105"/>
      <use x="239.111328" xlink:href="#RobotoCondensed-Regular-111"/>
      <use x="289.306641" xlink:href="#RobotoCondensed-Regular-110"/>
      <use x="337.695312" xlink:href="#RobotoCondensed-Regular-32"/>
      <use x="360.595703" xlink:href="#RobotoCondensed-Regular-114"/>
      <use x="391.015625" xlink:href="#RobotoCondensed-Regular-97"/>
      <use x="438.916016" xlink:href="#RobotoCondensed-Regular-116"/>
      <use x="468.457031" xlink:href="#RobotoCondensed-Regular-101"/>
      <use x="515.283203" xlink:href="#RobotoCondensed-Regular-32"/>
      <use x="538.183594" xlink:href="#RobotoCondensed-Regular-117"/>
      <use x="586.523438" xlink:href="#RobotoCondensed-Regular-110"/>
      <use x="634.912109" xlink:href="#RobotoCondensed-Regular-100"/>
      <use x="684.521484" xlink:href="#RobotoCondensed-Regular-101"/>
      <use x="731.347656" xlink:href="#RobotoCondensed-Regular-114"/>
      <use x="761.767578" xlink:href="#RobotoCondensed-Regular-32"/>
      <use x="784.667969" xlink:href="#RobotoCondensed-Regular-97"/>
      <use x="832.568359" xlink:href="#RobotoCondensed-Regular-100"/>
      <use x="882.177734" xlink:href="#RobotoCondensed-Regular-118"/>
      <use x="924.951172" xlink:href="#RobotoCondensed-Regular-46"/>
      <use x="951.269531" xlink:href="#RobotoCondensed-Regular-32"/>
      <use x="974.169922" xlink:href="#RobotoCondensed-Regular-112"/>
      <use x="1023.486328" xlink:href="#RobotoCondensed-Regular-114"/>
      <use x="1053.90625" xlink:href="#RobotoCondensed-Regular-111"/>
      <use x="1104.101562" xlink:href="#RobotoCondensed-Regular-98"/>
      <use x="1153.417969" xlink:href="#RobotoCondensed-Regular-105"/>
      <use x="1176.318359" xlink:href="#RobotoCondensed-Regular-110"/>
      <use x="1224.707031" xlink:href="#RobotoCondensed-Regular-103"/>
     </g>
    </g>
   </g>
   <g id="matplotlib.axis_2">
    <g id="ytick_1">
     <g id="line2d_18">
      <path clip-path="url(#p0bcdacefb0)" d="M 54.4475 326.781818 
L 389.2475 326.781818 
" style="fill:none;stroke:#f0f5f5;stroke-linecap:round;stroke-width:2;"/>
     </g>
     <g id="line2d_19"/>
     <g id="text_8">
      <!-- 0.5 -->
      <g transform="translate(29.541875 333.531818)scale(0.18 -0.18)">
       <use xlink:href="#RobotoCondensed-Regular-48"/>
       <use x="49.365234" xlink:href="#RobotoCondensed-Regular-46"/>
       <use x="75.683594" xlink:href="#RobotoCondensed-Regular-53"/>
      </g>
     </g>
    </g>
    <g id="ytick_2">
     <g id="line2d_20">
      <path clip-path="url(#p0bcdacefb0)" d="M 54.4475 265.909091 
L 389.2475 265.909091 
" style="fill:none;stroke:#f0f5f5;stroke-linecap:round;stroke-width:2;"/>
     </g>
     <g id="line2d_21"/>
     <g id="text_9">
      <!-- 0.6 -->
      <g transform="translate(29.541875 272.659091)scale(0.18 -0.18)">
       <defs>
        <path d="M 35.796875 71.140625 
L 35.796875 63.484375 
L 34.375 63.484375 
Q 25.734375 63.28125 20.84375 57.640625 
Q 15.96875 52 15.234375 40.671875 
Q 19.96875 46.625 27.34375 46.625 
Q 35.203125 46.625 39.8125 40.15625 
Q 44.4375 33.6875 44.4375 23.1875 
Q 44.4375 12.015625 39.328125 5.515625 
Q 34.234375 -0.984375 25.640625 -0.984375 
Q 17 -0.984375 11.71875 6.6875 
Q 6.453125 14.359375 6.453125 27.046875 
L 6.453125 30.515625 
Q 6.453125 45.171875 9.625 53.859375 
Q 12.796875 62.546875 18.96875 66.765625 
Q 25.140625 71 34.328125 71.140625 
z
M 25.875 39.109375 
Q 22.359375 39.109375 19.375 36.421875 
Q 16.40625 33.734375 15.09375 29.59375 
L 15.09375 26.03125 
Q 15.09375 17.390625 18.140625 11.9375 
Q 21.1875 6.5 25.640625 6.5 
Q 30.46875 6.5 33.203125 10.96875 
Q 35.9375 15.4375 35.9375 22.75 
Q 35.9375 29.984375 33.203125 34.546875 
Q 30.46875 39.109375 25.875 39.109375 
z
" id="RobotoCondensed-Regular-54"/>
       </defs>
       <use xlink:href="#RobotoCondensed-Regular-48"/>
       <use x="49.365234" xlink:href="#RobotoCondensed-Regular-46"/>
       <use x="75.683594" xlink:href="#RobotoCondensed-Regular-54"/>
      </g>
     </g>
    </g>
    <g id="ytick_3">
     <g id="line2d_22">
      <path clip-path="url(#p0bcdacefb0)" d="M 54.4475 205.036364 
L 389.2475 205.036364 
" style="fill:none;stroke:#f0f5f5;stroke-linecap:round;stroke-width:2;"/>
     </g>
     <g id="line2d_23"/>
     <g id="text_10">
      <!-- 0.7 -->
      <g transform="translate(29.541875 211.786364)scale(0.18 -0.18)">
       <defs>
        <path d="M 44.921875 66.015625 
L 20.453125 0 
L 11.421875 0 
L 35.84375 63.671875 
L 4.15625 63.671875 
L 4.15625 71.09375 
L 44.921875 71.09375 
z
" id="RobotoCondensed-Regular-55"/>
       </defs>
       <use xlink:href="#RobotoCondensed-Regular-48"/>
       <use x="49.365234" xlink:href="#RobotoCondensed-Regular-46"/>
       <use x="75.683594" xlink:href="#RobotoCondensed-Regular-55"/>
      </g>
     </g>
    </g>
    <g id="ytick_4">
     <g id="line2d_24">
      <path clip-path="url(#p0bcdacefb0)" d="M 54.4475 144.163636 
L 389.2475 144.163636 
" style="fill:none;stroke:#f0f5f5;stroke-linecap:round;stroke-width:2;"/>
     </g>
     <g id="line2d_25"/>
     <g id="text_11">
      <!-- 0.8 -->
      <g transform="translate(29.541875 150.913636)scale(0.18 -0.18)">
       <defs>
        <path d="M 42.28125 52.546875 
Q 42.28125 47.21875 39.90625 43.0625 
Q 37.546875 38.921875 33.546875 36.578125 
Q 38.28125 34.125 40.96875 29.5625 
Q 43.65625 25 43.65625 19.1875 
Q 43.65625 10.015625 38.453125 4.515625 
Q 33.25 -0.984375 24.65625 -0.984375 
Q 16.0625 -0.984375 10.859375 4.515625 
Q 5.671875 10.015625 5.671875 19.1875 
Q 5.671875 25.046875 8.328125 29.65625 
Q 10.984375 34.28125 15.578125 36.625 
Q 11.578125 38.96875 9.28125 43.09375 
Q 6.984375 47.21875 6.984375 52.546875 
Q 6.984375 61.53125 11.84375 66.796875 
Q 16.703125 72.078125 24.65625 72.078125 
Q 32.5625 72.078125 37.421875 66.84375 
Q 42.28125 61.625 42.28125 52.546875 
z
M 35.015625 19.390625 
Q 35.015625 25.484375 32.125 29.171875 
Q 29.25 32.859375 24.5625 32.859375 
Q 19.78125 32.859375 17.015625 29.140625 
Q 14.265625 25.4375 14.265625 19.390625 
Q 14.265625 13.234375 16.96875 9.8125 
Q 19.671875 6.390625 24.65625 6.390625 
Q 29.640625 6.390625 32.328125 9.8125 
Q 35.015625 13.234375 35.015625 19.390625 
z
M 33.6875 52.390625 
Q 33.6875 57.8125 31.140625 61.234375 
Q 28.609375 64.65625 24.65625 64.65625 
Q 20.515625 64.65625 18.0625 61.28125 
Q 15.625 57.90625 15.625 52.390625 
Q 15.625 46.828125 18.109375 43.546875 
Q 20.609375 40.28125 24.65625 40.28125 
Q 28.8125 40.28125 31.25 43.59375 
Q 33.6875 46.921875 33.6875 52.390625 
z
" id="RobotoCondensed-Regular-56"/>
       </defs>
       <use xlink:href="#RobotoCondensed-Regular-48"/>
       <use x="49.365234" xlink:href="#RobotoCondensed-Regular-46"/>
       <use x="75.683594" xlink:href="#RobotoCondensed-Regular-56"/>
      </g>
     </g>
    </g>
    <g id="ytick_5">
     <g id="line2d_26">
      <path clip-path="url(#p0bcdacefb0)" d="M 54.4475 83.290909 
L 389.2475 83.290909 
" style="fill:none;stroke:#f0f5f5;stroke-linecap:round;stroke-width:2;"/>
     </g>
     <g id="line2d_27"/>
     <g id="text_12">
      <!-- 0.9 -->
      <g transform="translate(29.541875 90.040909)scale(0.18 -0.18)">
       <defs>
        <path d="M 34.125 30.375 
Q 28.953125 23.78125 22.015625 23.78125 
Q 14.265625 23.78125 9.671875 30.3125 
Q 5.078125 36.859375 5.078125 47.46875 
Q 5.078125 58.59375 10.078125 65.328125 
Q 15.09375 72.078125 23.734375 72.078125 
Q 32.71875 72.078125 37.765625 64.28125 
Q 42.828125 56.5 42.828125 42.71875 
L 42.828125 40.046875 
Q 42.828125 28.21875 41.046875 20.890625 
Q 39.265625 13.578125 35.796875 9.078125 
Q 32.328125 4.59375 26.953125 2.265625 
Q 21.578125 -0.046875 13.53125 -0.046875 
L 13.53125 7.5625 
L 15.046875 7.5625 
Q 24.21875 7.765625 28.96875 13.15625 
Q 33.734375 18.5625 34.125 30.375 
z
M 23.484375 31.25 
Q 26.609375 31.25 29.578125 33.859375 
Q 32.5625 36.46875 34.234375 40.71875 
L 34.234375 44.53125 
Q 34.234375 53.375 31.15625 58.953125 
Q 28.078125 64.546875 23.734375 64.546875 
Q 19.046875 64.546875 16.28125 59.9375 
Q 13.53125 55.328125 13.53125 47.953125 
Q 13.53125 40.578125 16.203125 35.90625 
Q 18.890625 31.25 23.484375 31.25 
z
" id="RobotoCondensed-Regular-57"/>
       </defs>
       <use xlink:href="#RobotoCondensed-Regular-48"/>
       <use x="49.365234" xlink:href="#RobotoCondensed-Regular-46"/>
       <use x="75.683594" xlink:href="#RobotoCondensed-Regular-57"/>
      </g>
     </g>
    </g>
    <g id="ytick_6">
     <g id="line2d_28">
      <path clip-path="url(#p0bcdacefb0)" d="M 54.4475 22.418182 
L 389.2475 22.418182 
" style="fill:none;stroke:#f0f5f5;stroke-linecap:round;stroke-width:2;"/>
     </g>
     <g id="line2d_29"/>
     <g id="text_13">
      <!-- 1 -->
      <g transform="translate(43.162813 29.168182)scale(0.18 -0.18)">
       <use xlink:href="#RobotoCondensed-Regular-49"/>
      </g>
     </g>
    </g>
    <g id="ytick_7">
     <g id="line2d_30"/>
    </g>
    <g id="ytick_8">
     <g id="line2d_31"/>
    </g>
    <g id="ytick_9">
     <g id="line2d_32"/>
    </g>
    <g id="ytick_10">
     <g id="line2d_33"/>
    </g>
    <g id="ytick_11">
     <g id="line2d_34"/>
    </g>
    <g id="text_14">
     <!-- two-model preference rate -->
     <g transform="translate(20.885625 269.177828)rotate(-90)scale(0.18 -0.18)">
      <defs>
       <path d="M 45.84375 15.1875 
L 53.859375 52.828125 
L 62.40625 52.828125 
L 49.46875 0 
L 42.578125 0 
L 32.28125 37.796875 
L 22.21875 0 
L 15.28125 0 
L 2.4375 52.828125 
L 10.9375 52.828125 
L 19.140625 16.109375 
L 28.953125 52.828125 
L 35.796875 52.828125 
z
" id="RobotoCondensed-Regular-119"/>
       <path d="M 22.46875 26.515625 
L 2.296875 26.515625 
L 2.296875 33.890625 
L 22.46875 33.890625 
z
" id="RobotoCondensed-Regular-45"/>
       <path d="M 14.59375 52.828125 
L 14.796875 47.953125 
Q 19.625 53.8125 27.546875 53.8125 
Q 36.375 53.8125 39.890625 46.140625 
Q 44.875 53.8125 53.765625 53.8125 
Q 68.359375 53.8125 68.703125 35.59375 
L 68.703125 0 
L 60.109375 0 
L 60.109375 34.765625 
Q 60.109375 40.53125 58.046875 43.328125 
Q 56 46.140625 51.125 46.140625 
Q 47.21875 46.140625 44.765625 43.109375 
Q 42.328125 40.09375 41.9375 35.40625 
L 41.9375 0 
L 33.25 0 
L 33.25 35.15625 
Q 33.109375 46.140625 24.3125 46.140625 
Q 17.78125 46.140625 15.09375 39.59375 
L 15.09375 0 
L 6.5 0 
L 6.5 52.828125 
z
" id="RobotoCondensed-Regular-109"/>
       <path d="M 10.25 0 
L 10.25 45.84375 
L 3.375 45.84375 
L 3.375 52.828125 
L 10.25 52.828125 
L 10.25 58.9375 
Q 10.40625 67 14.328125 71.515625 
Q 18.265625 76.03125 25.4375 76.03125 
Q 28.03125 76.03125 30.671875 75.203125 
L 30.21875 67.875 
Q 28.375 68.3125 26.265625 68.3125 
Q 18.890625 68.3125 18.890625 57.8125 
L 18.890625 52.828125 
L 27.9375 52.828125 
L 27.9375 45.84375 
L 18.890625 45.84375 
L 18.890625 0 
z
" id="RobotoCondensed-Regular-102"/>
       <path d="M 24.8125 6.390625 
Q 29.109375 6.390625 31.6875 9.046875 
Q 34.28125 11.71875 34.515625 16.65625 
L 42.671875 16.65625 
Q 42.390625 9.03125 37.28125 4.015625 
Q 32.171875 -0.984375 24.8125 -0.984375 
Q 14.984375 -0.984375 9.828125 5.1875 
Q 4.6875 11.375 4.6875 23.578125 
L 4.6875 29.390625 
Q 4.6875 41.359375 9.8125 47.578125 
Q 14.9375 53.8125 24.75 53.8125 
Q 32.859375 53.8125 37.625 48.6875 
Q 42.390625 43.5625 42.671875 34.671875 
L 34.515625 34.671875 
Q 34.234375 40.53125 31.71875 43.453125 
Q 29.203125 46.390625 24.75 46.390625 
Q 19 46.390625 16.203125 42.59375 
Q 13.421875 38.8125 13.328125 30.171875 
L 13.328125 23.4375 
Q 13.328125 14.109375 16.078125 10.25 
Q 18.84375 6.390625 24.8125 6.390625 
z
" id="RobotoCondensed-Regular-99"/>
      </defs>
      <use xlink:href="#RobotoCondensed-Regular-116"/>
      <use x="29.541016" xlink:href="#RobotoCondensed-Regular-119"/>
      <use x="94.53125" xlink:href="#RobotoCondensed-Regular-111"/>
      <use x="144.726562" xlink:href="#RobotoCondensed-Regular-45"/>
      <use x="169.53125" xlink:href="#RobotoCondensed-Regular-109"/>
      <use x="244.775391" xlink:href="#RobotoCondensed-Regular-111"/>
      <use x="294.970703" xlink:href="#RobotoCondensed-Regular-100"/>
      <use x="344.580078" xlink:href="#RobotoCondensed-Regular-101"/>
      <use x="391.40625" xlink:href="#RobotoCondensed-Regular-108"/>
      <use x="414.306641" xlink:href="#RobotoCondensed-Regular-32"/>
      <use x="437.207031" xlink:href="#RobotoCondensed-Regular-112"/>
      <use x="486.523438" xlink:href="#RobotoCondensed-Regular-114"/>
      <use x="516.943359" xlink:href="#RobotoCondensed-Regular-101"/>
      <use x="563.769531" xlink:href="#RobotoCondensed-Regular-102"/>
      <use x="595.410156" xlink:href="#RobotoCondensed-Regular-101"/>
      <use x="642.236328" xlink:href="#RobotoCondensed-Regular-114"/>
      <use x="672.65625" xlink:href="#RobotoCondensed-Regular-101"/>
      <use x="719.482422" xlink:href="#RobotoCondensed-Regular-110"/>
      <use x="767.871094" xlink:href="#RobotoCondensed-Regular-99"/>
      <use x="814.0625" xlink:href="#RobotoCondensed-Regular-101"/>
      <use x="860.888672" xlink:href="#RobotoCondensed-Regular-32"/>
      <use x="883.789062" xlink:href="#RobotoCondensed-Regular-114"/>
      <use x="914.208984" xlink:href="#RobotoCondensed-Regular-97"/>
      <use x="962.109375" xlink:href="#RobotoCondensed-Regular-116"/>
      <use x="991.650391" xlink:href="#RobotoCondensed-Regular-101"/>
     </g>
    </g>
   </g>
   <g id="PathCollection_1">
    <defs>
     <path d="M 0 -4.874248 
L -1.094337 -1.506225 
L -4.635685 -1.506225 
L -1.770674 0.575327 
L -2.865011 3.94335 
L -0 1.861797 
L 2.865011 3.94335 
L 1.770674 0.575327 
L 4.635685 -1.506225 
L 1.094337 -1.506225 
z
" id="m293a2b2b09" style="stroke:#e1144b;stroke-width:0.886227;"/>
    </defs>
    <g clip-path="url(#p0bcdacefb0)">
     <use style="fill:#e1144b;stroke:#e1144b;stroke-width:0.886227;" x="136.769476" xlink:href="#m293a2b2b09" y="167.044874"/>
    </g>
   </g>
   <g id="PathCollection_2">
    <defs>
     <path d="M -0 6.893228 
L 6.893228 0 
L 0 -6.893228 
L -6.893228 -0 
z
" id="mf380077f11" style="stroke:#ffdb13;stroke-width:0.886227;"/>
    </defs>
    <g clip-path="url(#p0bcdacefb0)">
     <use style="fill:#ffdb13;stroke:#ffdb13;stroke-width:0.886227;" x="236.480367" xlink:href="#mf380077f11" y="205.690909"/>
    </g>
   </g>
   <g id="PathCollection_3">
    <defs>
     <path d="M 0 -4.874248 
L -4.874248 4.874248 
L 4.874248 4.874248 
z
" id="m3101337516" style="stroke:#ad70ff;stroke-width:0.886227;"/>
    </defs>
    <g clip-path="url(#p0bcdacefb0)">
     <use style="fill:#ad70ff;stroke:#ad70ff;stroke-width:0.886227;" x="129.344826" xlink:href="#m3101337516" y="307.60274"/>
    </g>
   </g>
   <g id="PathCollection_4">
    <defs>
     <path d="M 0 4.874248 
C 1.292666 4.874248 2.532561 4.360667 3.446614 3.446614 
C 4.360667 2.532561 4.874248 1.292666 4.874248 0 
C 4.874248 -1.292666 4.360667 -2.532561 3.446614 -3.446614 
C 2.532561 -4.360667 1.292666 -4.874248 0 -4.874248 
C -1.292666 -4.874248 -2.532561 -4.360667 -3.446614 -3.446614 
C -4.360667 -2.532561 -4.874248 -1.292666 -4.874248 0 
C -4.874248 1.292666 -4.360667 2.532561 -3.446614 3.446614 
C -2.532561 4.360667 -1.292666 4.874248 0 4.874248 
z
" id="mb1f904ad56" style="stroke:#123693;stroke-width:0.886227;"/>
    </defs>
    <g clip-path="url(#p0bcdacefb0)">
     <use style="fill:#123693;stroke:#123693;stroke-width:0.886227;" x="267.789181" xlink:href="#mb1f904ad56" y="326.781818"/>
    </g>
   </g>
   <g id="PathCollection_5">
    <defs>
     <path d="M -4.874248 4.874248 
L 4.874248 4.874248 
L 4.874248 -4.874248 
L -4.874248 -4.874248 
z
" id="md116c580ad" style="stroke:#14c8b9;stroke-width:0.886227;"/>
    </defs>
    <g clip-path="url(#p0bcdacefb0)">
     <use style="fill:#14c8b9;stroke:#14c8b9;stroke-width:0.886227;" x="323.302045" xlink:href="#md116c580ad" y="209.308134"/>
    </g>
   </g>
   <g id="PathCollection_6">
    <defs>
     <path d="M -0 4.874248 
L 4.874248 -4.874248 
L -4.874248 -4.874248 
z
" id="m991aec3c12" style="stroke:#ff8a4f;stroke-width:0.886227;"/>
    </defs>
    <g clip-path="url(#p0bcdacefb0)">
     <use style="fill:#ff8a4f;stroke:#ff8a4f;stroke-width:0.886227;" x="231.700999" xlink:href="#m991aec3c12" y="177.122351"/>
    </g>
   </g>
   <g id="LineCollection_1">
    <path clip-path="url(#p0bcdacefb0)" d="M 290.00855 325.26 
" style="fill:none;stroke:#123693;stroke-width:0.886227;"/>
    <path clip-path="url(#p0bcdacefb0)" d="M 245.581726 325.26 
" style="fill:none;stroke:#123693;stroke-width:0.886227;"/>
    <path clip-path="url(#p0bcdacefb0)" d="M 290.00855 326.781818 
L 245.581726 326.781818 
" style="fill:none;stroke:#123693;stroke-width:0.886227;"/>
   </g>
   <g id="LineCollection_2">
    <path clip-path="url(#p0bcdacefb0)" d="M 153.337745 309.124558 
L 153.337745 306.080922 
" style="fill:none;stroke:#ad70ff;stroke-width:0.886227;"/>
    <path clip-path="url(#p0bcdacefb0)" d="M 105.355619 309.124558 
L 105.355619 306.080922 
" style="fill:none;stroke:#ad70ff;stroke-width:0.886227;"/>
    <path clip-path="url(#p0bcdacefb0)" d="M 153.337745 307.60274 
L 105.355619 307.60274 
" style="fill:none;stroke:#ad70ff;stroke-width:0.886227;"/>
   </g>
   <g id="LineCollection_3">
    <path clip-path="url(#p0bcdacefb0)" d="M 339.624999 210.829952 
L 339.624999 207.786316 
" style="fill:none;stroke:#14c8b9;stroke-width:0.886227;"/>
    <path clip-path="url(#p0bcdacefb0)" d="M 306.989447 210.829952 
L 306.989447 207.786316 
" style="fill:none;stroke:#14c8b9;stroke-width:0.886227;"/>
    <path clip-path="url(#p0bcdacefb0)" d="M 339.624999 209.308134 
L 306.989447 209.308134 
" style="fill:none;stroke:#14c8b9;stroke-width:0.886227;"/>
   </g>
   <g id="LineCollection_4">
    <path clip-path="url(#p0bcdacefb0)" d="M 261.242171 207.212727 
L 261.242171 204.169091 
" style="fill:none;stroke:#ffdb13;stroke-width:0.886227;"/>
    <path clip-path="url(#p0bcdacefb0)" d="M 211.729109 207.212727 
L 211.729109 204.169091 
" style="fill:none;stroke:#ffdb13;stroke-width:0.886227;"/>
    <path clip-path="url(#p0bcdacefb0)" d="M 261.242171 205.690909 
L 211.729109 205.690909 
" style="fill:none;stroke:#ffdb13;stroke-width:0.886227;"/>
   </g>
   <g id="LineCollection_5">
    <path clip-path="url(#p0bcdacefb0)" d="M 253.397011 178.644169 
L 253.397011 175.600532 
" style="fill:none;stroke:#ff8a4f;stroke-width:0.886227;"/>
    <path clip-path="url(#p0bcdacefb0)" d="M 210.015097 178.644169 
L 210.015097 175.600532 
" style="fill:none;stroke:#ff8a4f;stroke-width:0.886227;"/>
    <path clip-path="url(#p0bcdacefb0)" d="M 253.397011 177.122351 
L 210.015097 177.122351 
" style="fill:none;stroke:#ff8a4f;stroke-width:0.886227;"/>
   </g>
   <g id="LineCollection_6">
    <path clip-path="url(#p0bcdacefb0)" d="M 162.962322 168.566692 
L 162.962322 165.523056 
" style="fill:none;stroke:#e1144b;stroke-width:0.886227;"/>
    <path clip-path="url(#p0bcdacefb0)" d="M 110.581083 168.566692 
L 110.581083 165.523056 
" style="fill:none;stroke:#e1144b;stroke-width:0.886227;"/>
    <path clip-path="url(#p0bcdacefb0)" d="M 162.962322 167.044874 
L 110.581083 167.044874 
" style="fill:none;stroke:#e1144b;stroke-width:0.886227;"/>
   </g>
   <g id="patch_3">
    <path d="M 54.4475 342 
L 54.4475 7.2 
" style="fill:none;stroke:#000000;stroke-linecap:square;stroke-linejoin:miter;stroke-width:2;"/>
   </g>
   <g id="patch_4">
    <path d="M 54.4475 342 
L 389.2475 342 
" style="fill:none;stroke:#000000;stroke-linecap:square;stroke-linejoin:miter;stroke-width:2;"/>
   </g>
   <g id="LineCollection_7">
    <path clip-path="url(#p0bcdacefb0)" d="M 269.310999 326.781818 
L 266.267363 326.781818 
" style="fill:none;stroke:#123693;stroke-width:0.886227;"/>
    <path clip-path="url(#p0bcdacefb0)" d="M 269.310999 326.781818 
L 266.267363 326.781818 
" style="fill:none;stroke:#123693;stroke-width:0.886227;"/>
    <path clip-path="url(#p0bcdacefb0)" d="M 267.789181 326.781818 
L 267.789181 326.781818 
" style="fill:none;stroke:#123693;stroke-width:0.886227;"/>
   </g>
   <g id="LineCollection_8">
    <path clip-path="url(#p0bcdacefb0)" d="M 130.866644 323.444704 
L 127.823008 323.444704 
" style="fill:none;stroke:#ad70ff;stroke-width:0.886227;"/>
    <path clip-path="url(#p0bcdacefb0)" d="M 130.866644 291.864922 
L 127.823008 291.864922 
" style="fill:none;stroke:#ad70ff;stroke-width:0.886227;"/>
    <path clip-path="url(#p0bcdacefb0)" d="M 129.344826 291.864922 
L 129.344826 323.444704 
" style="fill:none;stroke:#ad70ff;stroke-width:0.886227;"/>
   </g>
   <g id="LineCollection_9">
    <path clip-path="url(#p0bcdacefb0)" d="M 324.823864 221.198881 
L 321.780227 221.198881 
" style="fill:none;stroke:#14c8b9;stroke-width:0.886227;"/>
    <path clip-path="url(#p0bcdacefb0)" d="M 324.823864 197.826118 
L 321.780227 197.826118 
" style="fill:none;stroke:#14c8b9;stroke-width:0.886227;"/>
    <path clip-path="url(#p0bcdacefb0)" d="M 323.302045 197.826118 
L 323.302045 221.198881 
" style="fill:none;stroke:#14c8b9;stroke-width:0.886227;"/>
   </g>
   <g id="LineCollection_10">
    <path clip-path="url(#p0bcdacefb0)" d="M 238.002185 217.652542 
L 234.958549 217.652542 
" style="fill:none;stroke:#ffdb13;stroke-width:0.886227;"/>
    <path clip-path="url(#p0bcdacefb0)" d="M 238.002185 194.159645 
L 234.958549 194.159645 
" style="fill:none;stroke:#ffdb13;stroke-width:0.886227;"/>
    <path clip-path="url(#p0bcdacefb0)" d="M 236.480367 194.159645 
L 236.480367 217.652542 
" style="fill:none;stroke:#ffdb13;stroke-width:0.886227;"/>
   </g>
   <g id="LineCollection_11">
    <path clip-path="url(#p0bcdacefb0)" d="M 233.222817 191.36943 
L 230.179181 191.36943 
" style="fill:none;stroke:#ff8a4f;stroke-width:0.886227;"/>
    <path clip-path="url(#p0bcdacefb0)" d="M 233.222817 163.694722 
L 230.179181 163.694722 
" style="fill:none;stroke:#ff8a4f;stroke-width:0.886227;"/>
    <path clip-path="url(#p0bcdacefb0)" d="M 231.700999 163.694722 
L 231.700999 191.36943 
" style="fill:none;stroke:#ff8a4f;stroke-width:0.886227;"/>
   </g>
   <g id="LineCollection_12">
    <path clip-path="url(#p0bcdacefb0)" d="M 138.291294 182.928219 
L 135.247657 182.928219 
" style="fill:none;stroke:#e1144b;stroke-width:0.886227;"/>
    <path clip-path="url(#p0bcdacefb0)" d="M 138.291294 152.283789 
L 135.247657 152.283789 
" style="fill:none;stroke:#e1144b;stroke-width:0.886227;"/>
    <path clip-path="url(#p0bcdacefb0)" d="M 136.769476 152.283789 
L 136.769476 182.928219 
" style="fill:none;stroke:#e1144b;stroke-width:0.886227;"/>
   </g>
   <g id="patch_5">
    <path clip-path="url(#p6a1077e8e1)" d="M 416.4475 113.439163 
L 446.4475 113.439163 
L 446.4475 94.80444 
L 416.4475 94.80444 
z
" style="fill:none;"/>
   </g>
   <g id="line2d_35">
    <path clip-path="url(#p6a1077e8e1)" d="M 431.4475 104.121802 
" style="fill:none;stroke:#000000;stroke-linecap:round;stroke-width:2;"/>
    <g clip-path="url(#p6a1077e8e1)">
     <use style="fill:#123693;stroke:#123693;stroke-width:0.886227;" x="431.4475" xlink:href="#mb1f904ad56" y="104.121802"/>
    </g>
   </g>
   <g id="line2d_36">
    <path clip-path="url(#p6a1077e8e1)" d="M 416.4475 104.121802 
L 446.4475 104.121802 
" style="fill:none;stroke:#123693;stroke-width:0.886227;"/>
   </g>
   <g id="line2d_37">
    <path clip-path="url(#p6a1077e8e1)" d="M 416.4475 104.121802 
L 446.4475 104.121802 
" style="fill:none;stroke:#123693;stroke-width:0.886227;"/>
   </g>
   <g id="text_15">
    <!-- DPC (Dialogue Prompted Chinchilla) -->
    <g transform="translate(449.4475 109.275708)scale(0.18 -0.18)">
     <defs>
      <path d="M 7.671875 0 
L 7.671875 71.09375 
L 24.609375 71.09375 
Q 37.0625 71.09375 43.9375 63.296875 
Q 50.828125 55.515625 50.828125 41.40625 
L 50.828125 29.5 
Q 50.828125 15.375 43.84375 7.6875 
Q 36.859375 0 23.578125 0 
z
M 16.609375 63.375 
L 16.609375 7.671875 
L 23.78125 7.671875 
Q 33.203125 7.671875 37.546875 13.0625 
Q 41.890625 18.453125 42 29.046875 
L 42 41.65625 
Q 42 52.875 37.671875 58.125 
Q 33.34375 63.375 24.609375 63.375 
z
" id="RobotoCondensed-Regular-68"/>
      <path d="M 16.609375 27.828125 
L 16.609375 0 
L 7.671875 0 
L 7.671875 71.09375 
L 30.328125 71.09375 
Q 40.234375 71.09375 45.890625 65.15625 
Q 51.5625 59.234375 51.5625 49.359375 
Q 51.5625 39.109375 46.15625 33.5625 
Q 40.765625 28.03125 30.953125 27.828125 
z
M 16.609375 35.5 
L 30.328125 35.5 
Q 36.28125 35.5 39.453125 39.0625 
Q 42.625 42.625 42.625 49.265625 
Q 42.625 55.671875 39.34375 59.515625 
Q 36.078125 63.375 30.375 63.375 
L 16.609375 63.375 
z
" id="RobotoCondensed-Regular-80"/>
      <path d="M 52.25 22.5625 
Q 51.65625 11.140625 45.8125 5.078125 
Q 39.984375 -0.984375 29.34375 -0.984375 
Q 18.65625 -0.984375 12.359375 7.140625 
Q 6.0625 15.28125 6.0625 29.203125 
L 6.0625 42.09375 
Q 6.0625 55.953125 12.53125 64.015625 
Q 19 72.078125 30.171875 72.078125 
Q 40.484375 72.078125 46.125 65.890625 
Q 51.765625 59.71875 52.25 48.25 
L 43.21875 48.25 
Q 42.625 56.9375 39.546875 60.640625 
Q 36.46875 64.359375 30.171875 64.359375 
Q 22.90625 64.359375 19 58.671875 
Q 15.09375 52.984375 15.09375 42 
L 15.09375 28.953125 
Q 15.09375 18.171875 18.71875 12.40625 
Q 22.359375 6.640625 29.34375 6.640625 
Q 36.328125 6.640625 39.40625 10.109375 
Q 42.484375 13.578125 43.21875 22.5625 
z
" id="RobotoCondensed-Regular-67"/>
      <path d="M 6.296875 28.859375 
Q 6.296875 41.65625 9.765625 52.921875 
Q 13.234375 64.203125 19.578125 72.703125 
Q 23.4375 77.828125 27 80.21875 
L 28.71875 74.265625 
Q 22.859375 68.65625 19.09375 57.34375 
Q 15.328125 46.046875 14.984375 32.234375 
L 14.9375 28.265625 
Q 14.9375 11.078125 19.78125 -2.09375 
Q 23.4375 -12.015625 28.71875 -17.4375 
L 27 -22.953125 
Q 22.515625 -19.921875 17.875 -12.984375 
Q 6.296875 4.4375 6.296875 28.859375 
z
" id="RobotoCondensed-Regular-40"/>
      <path d="M 15.09375 47.40625 
Q 20.015625 53.8125 27.6875 53.8125 
Q 41.703125 53.8125 41.890625 35.109375 
L 41.890625 0 
L 33.296875 0 
L 33.296875 34.71875 
Q 33.296875 40.921875 31.21875 43.53125 
Q 29.15625 46.140625 25 46.140625 
Q 21.78125 46.140625 19.21875 43.984375 
Q 16.65625 41.84375 15.09375 38.375 
L 15.09375 0 
L 6.453125 0 
L 6.453125 75 
L 15.09375 75 
z
" id="RobotoCondensed-Regular-104"/>
      <path d="M 25.046875 28.375 
Q 25.046875 6.59375 15.28125 -10.15625 
Q 10.015625 -19.140625 4.34375 -22.953125 
L 2.640625 -17.4375 
Q 8.796875 -11.53125 12.546875 0.609375 
Q 16.3125 12.75 16.40625 27.203125 
L 16.40625 28.953125 
Q 16.40625 47.515625 10.296875 62.15625 
Q 6.9375 70.171875 2.640625 74.703125 
L 4.34375 80.21875 
Q 9.71875 76.609375 14.75 68.359375 
Q 25.046875 51.375 25.046875 28.375 
z
" id="RobotoCondensed-Regular-41"/>
     </defs>
     <use xlink:href="#RobotoCondensed-Regular-68"/>
     <use x="57.080078" xlink:href="#RobotoCondensed-Regular-80"/>
     <use x="112.5" xlink:href="#RobotoCondensed-Regular-67"/>
     <use x="169.189453" xlink:href="#RobotoCondensed-Regular-32"/>
     <use x="192.089844" xlink:href="#RobotoCondensed-Regular-40"/>
     <use x="223.486328" xlink:href="#RobotoCondensed-Regular-68"/>
     <use x="280.566406" xlink:href="#RobotoCondensed-Regular-105"/>
     <use x="303.466797" xlink:href="#RobotoCondensed-Regular-97"/>
     <use x="351.367188" xlink:href="#RobotoCondensed-Regular-108"/>
     <use x="374.267578" xlink:href="#RobotoCondensed-Regular-111"/>
     <use x="424.462891" xlink:href="#RobotoCondensed-Regular-103"/>
     <use x="473.730469" xlink:href="#RobotoCondensed-Regular-117"/>
     <use x="522.070312" xlink:href="#RobotoCondensed-Regular-101"/>
     <use x="568.896484" xlink:href="#RobotoCondensed-Regular-32"/>
     <use x="591.796875" xlink:href="#RobotoCondensed-Regular-80"/>
     <use x="647.216797" xlink:href="#RobotoCondensed-Regular-114"/>
     <use x="677.636719" xlink:href="#RobotoCondensed-Regular-111"/>
     <use x="727.832031" xlink:href="#RobotoCondensed-Regular-109"/>
     <use x="803.076172" xlink:href="#RobotoCondensed-Regular-112"/>
     <use x="852.392578" xlink:href="#RobotoCondensed-Regular-116"/>
     <use x="881.933594" xlink:href="#RobotoCondensed-Regular-101"/>
     <use x="928.759766" xlink:href="#RobotoCondensed-Regular-100"/>
     <use x="978.369141" xlink:href="#RobotoCondensed-Regular-32"/>
     <use x="1001.269531" xlink:href="#RobotoCondensed-Regular-67"/>
     <use x="1057.958984" xlink:href="#RobotoCondensed-Regular-104"/>
     <use x="1106.25" xlink:href="#RobotoCondensed-Regular-105"/>
     <use x="1129.150391" xlink:href="#RobotoCondensed-Regular-110"/>
     <use x="1177.539062" xlink:href="#RobotoCondensed-Regular-99"/>
     <use x="1223.730469" xlink:href="#RobotoCondensed-Regular-104"/>
     <use x="1272.021484" xlink:href="#RobotoCondensed-Regular-105"/>
     <use x="1294.921875" xlink:href="#RobotoCondensed-Regular-108"/>
     <use x="1317.822266" xlink:href="#RobotoCondensed-Regular-108"/>
     <use x="1340.722656" xlink:href="#RobotoCondensed-Regular-97"/>
     <use x="1388.623047" xlink:href="#RobotoCondensed-Regular-41"/>
    </g>
   </g>
   <g id="patch_6">
    <path clip-path="url(#pb90d5a50b4)" d="M 416.4475 142.073886 
L 446.4475 142.073886 
L 446.4475 123.439163 
L 416.4475 123.439163 
z
" style="fill:none;"/>
   </g>
   <g id="line2d_38">
    <path clip-path="url(#pb90d5a50b4)" d="M 431.4475 132.756525 
" style="fill:none;stroke:#000000;stroke-linecap:round;stroke-width:2;"/>
    <defs>
     <path d="M 0 -4.874248 
L -4.874248 4.874248 
L 4.874248 4.874248 
z
" id="mddece1383a" style="stroke:#ad70ff;stroke-linejoin:miter;stroke-width:0.886227;"/>
    </defs>
    <g clip-path="url(#pb90d5a50b4)">
     <use style="fill:#ad70ff;stroke:#ad70ff;stroke-linejoin:miter;stroke-width:0.886227;" x="431.4475" xlink:href="#mddece1383a" y="132.756525"/>
    </g>
   </g>
   <g id="line2d_39">
    <path clip-path="url(#pb90d5a50b4)" d="M 416.4475 132.756525 
L 446.4475 132.756525 
" style="fill:none;stroke:#ad70ff;stroke-width:0.886227;"/>
   </g>
   <g id="line2d_40">
    <path clip-path="url(#pb90d5a50b4)" d="M 416.4475 132.756525 
L 446.4475 132.756525 
" style="fill:none;stroke:#ad70ff;stroke-width:0.886227;"/>
   </g>
   <g id="text_16">
    <!-- Chinchilla, less restrictive prompt -->
    <g transform="translate(449.4475 137.6784)scale(0.18 -0.18)">
     <defs>
      <path d="M 6.546875 -14.15625 
L 1.421875 -10.640625 
Q 6 -4.25 6.203125 2.546875 
L 6.203125 10.6875 
L 15.046875 10.6875 
L 15.046875 3.609375 
Q 15.046875 -1.3125 12.625 -6.25 
Q 10.203125 -11.1875 6.546875 -14.15625 
z
" id="RobotoCondensed-Regular-44"/>
      <path d="M 32.125 13.53125 
Q 32.125 16.3125 30.03125 18.3125 
Q 27.9375 20.3125 21.921875 23 
Q 14.9375 25.875 12.078125 27.921875 
Q 9.234375 29.984375 7.8125 32.59375 
Q 6.390625 35.203125 6.390625 38.8125 
Q 6.390625 45.265625 11.109375 49.53125 
Q 15.828125 53.8125 23.140625 53.8125 
Q 30.859375 53.8125 35.546875 49.3125 
Q 40.234375 44.828125 40.234375 37.796875 
L 31.640625 37.796875 
Q 31.640625 41.359375 29.25 43.875 
Q 26.859375 46.390625 23.140625 46.390625 
Q 19.34375 46.390625 17.15625 44.40625 
Q 14.984375 42.4375 14.984375 39.109375 
Q 14.984375 36.46875 16.578125 34.859375 
Q 18.171875 33.25 24.21875 30.609375 
Q 33.84375 26.859375 37.296875 23.265625 
Q 40.765625 19.671875 40.765625 14.15625 
Q 40.765625 7.28125 36.03125 3.140625 
Q 31.296875 -0.984375 23.34375 -0.984375 
Q 15.09375 -0.984375 9.953125 3.75 
Q 4.828125 8.5 4.828125 15.765625 
L 13.53125 15.765625 
Q 13.671875 11.375 16.203125 8.875 
Q 18.75 6.390625 23.34375 6.390625 
Q 27.640625 6.390625 29.875 8.3125 
Q 32.125 10.25 32.125 13.53125 
z
" id="RobotoCondensed-Regular-115"/>
     </defs>
     <use xlink:href="#RobotoCondensed-Regular-67"/>
     <use x="56.689453" xlink:href="#RobotoCondensed-Regular-104"/>
     <use x="104.980469" xlink:href="#RobotoCondensed-Regular-105"/>
     <use x="127.880859" xlink:href="#RobotoCondensed-Regular-110"/>
     <use x="176.269531" xlink:href="#RobotoCondensed-Regular-99"/>
     <use x="222.460938" xlink:href="#RobotoCondensed-Regular-104"/>
     <use x="270.751953" xlink:href="#RobotoCondensed-Regular-105"/>
     <use x="293.652344" xlink:href="#RobotoCondensed-Regular-108"/>
     <use x="316.552734" xlink:href="#RobotoCondensed-Regular-108"/>
     <use x="339.453125" xlink:href="#RobotoCondensed-Regular-97"/>
     <use x="387.353516" xlink:href="#RobotoCondensed-Regular-44"/>
     <use x="406.982422" xlink:href="#RobotoCondensed-Regular-32"/>
     <use x="429.882812" xlink:href="#RobotoCondensed-Regular-108"/>
     <use x="452.783203" xlink:href="#RobotoCondensed-Regular-101"/>
     <use x="499.609375" xlink:href="#RobotoCondensed-Regular-115"/>
     <use x="545.166016" xlink:href="#RobotoCondensed-Regular-115"/>
     <use x="590.722656" xlink:href="#RobotoCondensed-Regular-32"/>
     <use x="613.623047" xlink:href="#RobotoCondensed-Regular-114"/>
     <use x="644.042969" xlink:href="#RobotoCondensed-Regular-101"/>
     <use x="690.869141" xlink:href="#RobotoCondensed-Regular-115"/>
     <use x="736.425781" xlink:href="#RobotoCondensed-Regular-116"/>
     <use x="765.966797" xlink:href="#RobotoCondensed-Regular-114"/>
     <use x="796.386719" xlink:href="#RobotoCondensed-Regular-105"/>
     <use x="819.287109" xlink:href="#RobotoCondensed-Regular-99"/>
     <use x="865.478516" xlink:href="#RobotoCondensed-Regular-116"/>
     <use x="895.019531" xlink:href="#RobotoCondensed-Regular-105"/>
     <use x="917.919922" xlink:href="#RobotoCondensed-Regular-118"/>
     <use x="960.693359" xlink:href="#RobotoCondensed-Regular-101"/>
     <use x="1007.519531" xlink:href="#RobotoCondensed-Regular-32"/>
     <use x="1030.419922" xlink:href="#RobotoCondensed-Regular-112"/>
     <use x="1079.736328" xlink:href="#RobotoCondensed-Regular-114"/>
     <use x="1110.15625" xlink:href="#RobotoCondensed-Regular-111"/>
     <use x="1160.351562" xlink:href="#RobotoCondensed-Regular-109"/>
     <use x="1235.595703" xlink:href="#RobotoCondensed-Regular-112"/>
     <use x="1284.912109" xlink:href="#RobotoCondensed-Regular-116"/>
    </g>
   </g>
   <g id="patch_7">
    <path clip-path="url(#pa7992f06c7)" d="M 416.4475 170.708609 
L 446.4475 170.708609 
L 446.4475 152.073886 
L 416.4475 152.073886 
z
" style="fill:none;"/>
   </g>
   <g id="line2d_41">
    <path clip-path="url(#pa7992f06c7)" d="M 431.4475 161.391248 
" style="fill:none;stroke:#000000;stroke-linecap:round;stroke-width:2;"/>
    <defs>
     <path d="M -4.874248 4.874248 
L 4.874248 4.874248 
L 4.874248 -4.874248 
L -4.874248 -4.874248 
z
" id="m3ad45c949f" style="stroke:#14c8b9;stroke-linejoin:miter;stroke-width:0.886227;"/>
    </defs>
    <g clip-path="url(#pa7992f06c7)">
     <use style="fill:#14c8b9;stroke:#14c8b9;stroke-linejoin:miter;stroke-width:0.886227;" x="431.4475" xlink:href="#m3ad45c949f" y="161.391248"/>
    </g>
   </g>
   <g id="line2d_42">
    <path clip-path="url(#pa7992f06c7)" d="M 416.4475 161.391248 
L 446.4475 161.391248 
" style="fill:none;stroke:#14c8b9;stroke-width:0.886227;"/>
   </g>
   <g id="line2d_43">
    <path clip-path="url(#pa7992f06c7)" d="M 416.4475 161.391248 
L 446.4475 161.391248 
" style="fill:none;stroke:#14c8b9;stroke-width:0.886227;"/>
   </g>
   <g id="text_17">
    <!-- preference RM + rule RM + red teaming -->
    <g transform="translate(449.4475 166.362341)scale(0.18 -0.18)">
     <defs>
      <path d="M 29.15625 28.765625 
L 16.65625 28.765625 
L 16.65625 0 
L 7.671875 0 
L 7.671875 71.09375 
L 27.59375 71.09375 
Q 38.03125 71.09375 43.40625 65.640625 
Q 48.78125 60.203125 48.78125 49.703125 
Q 48.78125 43.109375 45.875 38.203125 
Q 42.96875 33.296875 37.640625 30.8125 
L 51.421875 0.59375 
L 51.421875 0 
L 41.796875 0 
z
M 16.65625 36.421875 
L 27.484375 36.421875 
Q 33.109375 36.421875 36.453125 40.03125 
Q 39.796875 43.65625 39.796875 49.703125 
Q 39.796875 63.375 27.390625 63.375 
L 16.65625 63.375 
z
" id="RobotoCondensed-Regular-82"/>
      <path d="M 19.1875 71.09375 
L 37.75 13.09375 
L 56.296875 71.09375 
L 67.828125 71.09375 
L 67.828125 0 
L 58.890625 0 
L 58.890625 27.6875 
L 59.71875 55.421875 
L 41.109375 0 
L 34.28125 0 
L 15.765625 55.21875 
L 16.609375 27.6875 
L 16.609375 0 
L 7.671875 0 
L 7.671875 71.09375 
z
" id="RobotoCondensed-Regular-77"/>
      <path d="M 29.109375 38.140625 
L 45.171875 38.140625 
L 45.171875 29.59375 
L 29.109375 29.59375 
L 29.109375 7.125 
L 20.40625 7.125 
L 20.40625 29.59375 
L 4.203125 29.59375 
L 4.203125 38.140625 
L 20.40625 38.140625 
L 20.40625 58.890625 
L 29.109375 58.890625 
z
" id="RobotoCondensed-Regular-43"/>
     </defs>
     <use xlink:href="#RobotoCondensed-Regular-112"/>
     <use x="49.316406" xlink:href="#RobotoCondensed-Regular-114"/>
     <use x="79.736328" xlink:href="#RobotoCondensed-Regular-101"/>
     <use x="126.5625" xlink:href="#RobotoCondensed-Regular-102"/>
     <use x="158.203125" xlink:href="#RobotoCondensed-Regular-101"/>
     <use x="205.029297" xlink:href="#RobotoCondensed-Regular-114"/>
     <use x="235.449219" xlink:href="#RobotoCondensed-Regular-101"/>
     <use x="282.275391" xlink:href="#RobotoCondensed-Regular-110"/>
     <use x="330.664062" xlink:href="#RobotoCondensed-Regular-99"/>
     <use x="376.855469" xlink:href="#RobotoCondensed-Regular-101"/>
     <use x="423.681641" xlink:href="#RobotoCondensed-Regular-32"/>
     <use x="446.582031" xlink:href="#RobotoCondensed-Regular-82"/>
     <use x="499.658203" xlink:href="#RobotoCondensed-Regular-77"/>
     <use x="575.195312" xlink:href="#RobotoCondensed-Regular-32"/>
     <use x="598.095703" xlink:href="#RobotoCondensed-Regular-43"/>
     <use x="647.753906" xlink:href="#RobotoCondensed-Regular-32"/>
     <use x="670.654297" xlink:href="#RobotoCondensed-Regular-114"/>
     <use x="701.074219" xlink:href="#RobotoCondensed-Regular-117"/>
     <use x="749.414062" xlink:href="#RobotoCondensed-Regular-108"/>
     <use x="772.314453" xlink:href="#RobotoCondensed-Regular-101"/>
     <use x="819.140625" xlink:href="#RobotoCondensed-Regular-32"/>
     <use x="842.041016" xlink:href="#RobotoCondensed-Regular-82"/>
     <use x="895.117188" xlink:href="#RobotoCondensed-Regular-77"/>
     <use x="970.654297" xlink:href="#RobotoCondensed-Regular-32"/>
     <use x="993.554688" xlink:href="#RobotoCondensed-Regular-43"/>
     <use x="1043.212891" xlink:href="#RobotoCondensed-Regular-32"/>
     <use x="1066.113281" xlink:href="#RobotoCondensed-Regular-114"/>
     <use x="1096.533203" xlink:href="#RobotoCondensed-Regular-101"/>
     <use x="1143.359375" xlink:href="#RobotoCondensed-Regular-100"/>
     <use x="1192.96875" xlink:href="#RobotoCondensed-Regular-32"/>
     <use x="1215.869141" xlink:href="#RobotoCondensed-Regular-116"/>
     <use x="1245.410156" xlink:href="#RobotoCondensed-Regular-101"/>
     <use x="1292.236328" xlink:href="#RobotoCondensed-Regular-97"/>
     <use x="1340.136719" xlink:href="#RobotoCondensed-Regular-109"/>
     <use x="1415.380859" xlink:href="#RobotoCondensed-Regular-105"/>
     <use x="1438.28125" xlink:href="#RobotoCondensed-Regular-110"/>
     <use x="1486.669922" xlink:href="#RobotoCondensed-Regular-103"/>
    </g>
   </g>
   <g id="patch_8">
    <path clip-path="url(#p6c96417efc)" d="M 416.4475 199.343332 
L 446.4475 199.343332 
L 446.4475 180.708609 
L 416.4475 180.708609 
z
" style="fill:none;"/>
   </g>
   <g id="line2d_44">
    <path clip-path="url(#p6c96417efc)" d="M 431.4475 190.025971 
" style="fill:none;stroke:#000000;stroke-linecap:round;stroke-width:2;"/>
    <defs>
     <path d="M -0 6.893228 
L 6.893228 0 
L 0 -6.893228 
L -6.893228 -0 
z
" id="m73fbd26d7e" style="stroke:#ffdb13;stroke-linejoin:miter;stroke-width:0.886227;"/>
    </defs>
    <g clip-path="url(#p6c96417efc)">
     <use style="fill:#ffdb13;stroke:#ffdb13;stroke-linejoin:miter;stroke-width:0.886227;" x="431.4475" xlink:href="#m73fbd26d7e" y="190.025971"/>
    </g>
   </g>
   <g id="line2d_45">
    <path clip-path="url(#p6c96417efc)" d="M 416.4475 190.025971 
L 446.4475 190.025971 
" style="fill:none;stroke:#ffdb13;stroke-width:0.886227;"/>
   </g>
   <g id="line2d_46">
    <path clip-path="url(#p6c96417efc)" d="M 416.4475 190.025971 
L 446.4475 190.025971 
" style="fill:none;stroke:#ffdb13;stroke-width:0.886227;"/>
   </g>
   <g id="text_18">
    <!-- preference RM + red teaming -->
    <g transform="translate(449.4475 194.997065)scale(0.18 -0.18)">
     <use xlink:href="#RobotoCondensed-Regular-112"/>
     <use x="49.316406" xlink:href="#RobotoCondensed-Regular-114"/>
     <use x="79.736328" xlink:href="#RobotoCondensed-Regular-101"/>
     <use x="126.5625" xlink:href="#RobotoCondensed-Regular-102"/>
     <use x="158.203125" xlink:href="#RobotoCondensed-Regular-101"/>
     <use x="205.029297" xlink:href="#RobotoCondensed-Regular-114"/>
     <use x="235.449219" xlink:href="#RobotoCondensed-Regular-101"/>
     <use x="282.275391" xlink:href="#RobotoCondensed-Regular-110"/>
     <use x="330.664062" xlink:href="#RobotoCondensed-Regular-99"/>
     <use x="376.855469" xlink:href="#RobotoCondensed-Regular-101"/>
     <use x="423.681641" xlink:href="#RobotoCondensed-Regular-32"/>
     <use x="446.582031" xlink:href="#RobotoCondensed-Regular-82"/>
     <use x="499.658203" xlink:href="#RobotoCondensed-Regular-77"/>
     <use x="575.195312" xlink:href="#RobotoCondensed-Regular-32"/>
     <use x="598.095703" xlink:href="#RobotoCondensed-Regular-43"/>
     <use x="647.753906" xlink:href="#RobotoCondensed-Regular-32"/>
     <use x="670.654297" xlink:href="#RobotoCondensed-Regular-114"/>
     <use x="701.074219" xlink:href="#RobotoCondensed-Regular-101"/>
     <use x="747.900391" xlink:href="#RobotoCondensed-Regular-100"/>
     <use x="797.509766" xlink:href="#RobotoCondensed-Regular-32"/>
     <use x="820.410156" xlink:href="#RobotoCondensed-Regular-116"/>
     <use x="849.951172" xlink:href="#RobotoCondensed-Regular-101"/>
     <use x="896.777344" xlink:href="#RobotoCondensed-Regular-97"/>
     <use x="944.677734" xlink:href="#RobotoCondensed-Regular-109"/>
     <use x="1019.921875" xlink:href="#RobotoCondensed-Regular-105"/>
     <use x="1042.822266" xlink:href="#RobotoCondensed-Regular-110"/>
     <use x="1091.210938" xlink:href="#RobotoCondensed-Regular-103"/>
    </g>
   </g>
   <g id="patch_9">
    <path clip-path="url(#pc299744baa)" d="M 416.4475 227.978055 
L 446.4475 227.978055 
L 446.4475 209.343332 
L 416.4475 209.343332 
z
" style="fill:none;"/>
   </g>
   <g id="line2d_47">
    <path clip-path="url(#pc299744baa)" d="M 431.4475 218.660694 
" style="fill:none;stroke:#000000;stroke-linecap:round;stroke-width:2;"/>
    <defs>
     <path d="M -0 4.874248 
L 4.874248 -4.874248 
L -4.874248 -4.874248 
z
" id="ma5861ea924" style="stroke:#ff8a4f;stroke-linejoin:miter;stroke-width:0.886227;"/>
    </defs>
    <g clip-path="url(#pc299744baa)">
     <use style="fill:#ff8a4f;stroke:#ff8a4f;stroke-linejoin:miter;stroke-width:0.886227;" x="431.4475" xlink:href="#ma5861ea924" y="218.660694"/>
    </g>
   </g>
   <g id="line2d_48">
    <path clip-path="url(#pc299744baa)" d="M 416.4475 218.660694 
L 446.4475 218.660694 
" style="fill:none;stroke:#ff8a4f;stroke-width:0.886227;"/>
   </g>
   <g id="line2d_49">
    <path clip-path="url(#pc299744baa)" d="M 416.4475 218.660694 
L 446.4475 218.660694 
" style="fill:none;stroke:#ff8a4f;stroke-width:0.886227;"/>
   </g>
   <g id="text_19">
    <!-- preference RM + rule RM -->
    <g transform="translate(449.4475 223.675381)scale(0.18 -0.18)">
     <use xlink:href="#RobotoCondensed-Regular-112"/>
     <use x="49.316406" xlink:href="#RobotoCondensed-Regular-114"/>
     <use x="79.736328" xlink:href="#RobotoCondensed-Regular-101"/>
     <use x="126.5625" xlink:href="#RobotoCondensed-Regular-102"/>
     <use x="158.203125" xlink:href="#RobotoCondensed-Regular-101"/>
     <use x="205.029297" xlink:href="#RobotoCondensed-Regular-114"/>
     <use x="235.449219" xlink:href="#RobotoCondensed-Regular-101"/>
     <use x="282.275391" xlink:href="#RobotoCondensed-Regular-110"/>
     <use x="330.664062" xlink:href="#RobotoCondensed-Regular-99"/>
     <use x="376.855469" xlink:href="#RobotoCondensed-Regular-101"/>
     <use x="423.681641" xlink:href="#RobotoCondensed-Regular-32"/>
     <use x="446.582031" xlink:href="#RobotoCondensed-Regular-82"/>
     <use x="499.658203" xlink:href="#RobotoCondensed-Regular-77"/>
     <use x="575.195312" xlink:href="#RobotoCondensed-Regular-32"/>
     <use x="598.095703" xlink:href="#RobotoCondensed-Regular-43"/>
     <use x="647.753906" xlink:href="#RobotoCondensed-Regular-32"/>
     <use x="670.654297" xlink:href="#RobotoCondensed-Regular-114"/>
     <use x="701.074219" xlink:href="#RobotoCondensed-Regular-117"/>
     <use x="749.414062" xlink:href="#RobotoCondensed-Regular-108"/>
     <use x="772.314453" xlink:href="#RobotoCondensed-Regular-101"/>
     <use x="819.140625" xlink:href="#RobotoCondensed-Regular-32"/>
     <use x="842.041016" xlink:href="#RobotoCondensed-Regular-82"/>
     <use x="895.117188" xlink:href="#RobotoCondensed-Regular-77"/>
    </g>
   </g>
   <g id="patch_10">
    <path clip-path="url(#p37d04a107d)" d="M 416.4475 256.612779 
L 446.4475 256.612779 
L 446.4475 237.978055 
L 416.4475 237.978055 
z
" style="fill:none;"/>
   </g>
   <g id="line2d_50">
    <path clip-path="url(#p37d04a107d)" d="M 431.4475 247.295417 
" style="fill:none;stroke:#000000;stroke-linecap:round;stroke-width:2;"/>
    <defs>
     <path d="M 0 -4.874248 
L -1.094337 -1.506225 
L -4.635685 -1.506225 
L -1.770674 0.575327 
L -2.865011 3.94335 
L -0 1.861797 
L 2.865011 3.94335 
L 1.770674 0.575327 
L 4.635685 -1.506225 
L 1.094337 -1.506225 
z
" id="m2af1aaad4f" style="stroke:#e1144b;stroke-linejoin:bevel;stroke-width:0.886227;"/>
    </defs>
    <g clip-path="url(#p37d04a107d)">
     <use style="fill:#e1144b;stroke:#e1144b;stroke-linejoin:bevel;stroke-width:0.886227;" x="431.4475" xlink:href="#m2af1aaad4f" y="247.295417"/>
    </g>
   </g>
   <g id="line2d_51">
    <path clip-path="url(#p37d04a107d)" d="M 416.4475 247.295417 
L 446.4475 247.295417 
" style="fill:none;stroke:#e1144b;stroke-width:0.886227;"/>
   </g>
   <g id="line2d_52">
    <path clip-path="url(#p37d04a107d)" d="M 416.4475 247.295417 
L 446.4475 247.295417 
" style="fill:none;stroke:#e1144b;stroke-width:0.886227;"/>
   </g>
   <g id="text_20">
    <!-- preference RM -->
    <g transform="translate(449.4475 252.310105)scale(0.18 -0.18)">
     <use xlink:href="#RobotoCondensed-Regular-112"/>
     <use x="49.316406" xlink:href="#RobotoCondensed-Regular-114"/>
     <use x="79.736328" xlink:href="#RobotoCondensed-Regular-101"/>
     <use x="126.5625" xlink:href="#RobotoCondensed-Regular-102"/>
     <use x="158.203125" xlink:href="#RobotoCondensed-Regular-101"/>
     <use x="205.029297" xlink:href="#RobotoCondensed-Regular-114"/>
     <use x="235.449219" xlink:href="#RobotoCondensed-Regular-101"/>
     <use x="282.275391" xlink:href="#RobotoCondensed-Regular-110"/>
     <use x="330.664062" xlink:href="#RobotoCondensed-Regular-99"/>
     <use x="376.855469" xlink:href="#RobotoCondensed-Regular-101"/>
     <use x="423.681641" xlink:href="#RobotoCondensed-Regular-32"/>
     <use x="446.582031" xlink:href="#RobotoCondensed-Regular-82"/>
     <use x="499.658203" xlink:href="#RobotoCondensed-Regular-77"/>
    </g>
   </g>
  </g>
 </g>
 <defs>
  <clipPath id="p0bcdacefb0">
   <rect height="334.8" width="334.8" x="54.4475" y="7.2"/>
  </clipPath>
  <clipPath id="p6a1077e8e1">
   <path d="M 416.4475 113.439163 
L 416.4475 94.80444 
L 446.4475 94.80444 
L 446.4475 113.439163 
"/>
  </clipPath>
  <clipPath id="pb90d5a50b4">
   <path d="M 416.4475 142.073886 
L 416.4475 123.439163 
L 446.4475 123.439163 
L 446.4475 142.073886 
"/>
  </clipPath>
  <clipPath id="pa7992f06c7">
   <path d="M 416.4475 170.708609 
L 416.4475 152.073886 
L 446.4475 152.073886 
L 446.4475 170.708609 
"/>
  </clipPath>
  <clipPath id="p6c96417efc">
   <path d="M 416.4475 199.343332 
L 416.4475 180.708609 
L 446.4475 180.708609 
L 446.4475 199.343332 
"/>
  </clipPath>
  <clipPath id="pc299744baa">
   <path d="M 416.4475 227.978055 
L 416.4475 209.343332 
L 446.4475 209.343332 
L 446.4475 227.978055 
"/>
  </clipPath>
  <clipPath id="p37d04a107d">
   <path d="M 416.4475 256.612779 
L 416.4475 237.978055 
L 446.4475 237.978055 
L 446.4475 256.612779 
"/>
  </clipPath>
 </defs>
</svg>
